<?xml version="1.0" standalone="no"?>
<!DOCTYPE svg PUBLIC "-//W3C//DTD SVG 20010904//EN"
 "http://www.w3.org/TR/2001/REC-SVG-20010904/DTD/svg10.dtd">
<svg version="1.0" xmlns="http://www.w3.org/2000/svg"
 width="1280.000000pt" height="1222.000000pt" viewBox="0 0 1280.000000 1222.000000"
 preserveAspectRatio="xMidYMid meet">
<metadata>
Created by potrace 1.15, written by Peter Selinger 2001-2017
</metadata>
<g transform="translate(0.000000,1222.000000) scale(0.100000,-0.100000)"
fill="#000000" stroke="none">
<path d="M5585 12191 c-139 -37 -253 -78 -480 -176 -198 -85 -345 -127 -505
-146 -133 -15 -302 -7 -400 20 -41 12 -100 28 -130 36 -138 38 -356 42 -500 9
-102 -23 -207 -79 -271 -144 -93 -92 -119 -162 -160 -423 -14 -85 -29 -147
-39 -159 -12 -15 -34 -22 -95 -28 -222 -23 -374 -121 -785 -511 -259 -246
-341 -306 -630 -459 -408 -216 -643 -381 -863 -605 -179 -182 -282 -331 -436
-635 -180 -353 -291 -684 -291 -865 0 -214 138 -532 336 -776 73 -90 212 -221
276 -262 194 -124 433 -136 599 -31 68 43 77 109 20 142 -37 21 -64 61 -100
152 -71 180 -73 325 -6 415 36 48 51 86 64 155 7 36 31 108 53 160 77 181 134
262 228 325 151 101 450 222 665 270 139 31 186 30 265 -8 100 -48 386 -278
689 -555 208 -189 358 -297 590 -422 232 -125 421 -259 483 -344 29 -40 30
-44 25 -126 -3 -47 -19 -146 -35 -220 -17 -74 -36 -189 -44 -255 -18 -166 -17
-973 2 -1425 22 -509 20 -1077 -3 -1245 -26 -187 -71 -410 -129 -640 -46 -185
-79 -290 -186 -595 -115 -329 -131 -489 -73 -730 106 -439 235 -799 404 -1130
54 -107 97 -193 94 -190 -3 3 -80 88 -172 190 -195 216 -297 364 -583 840
-100 168 -219 355 -264 415 -144 194 -336 365 -486 432 -90 39 -419 113 -507
113 -28 0 -32 -3 -28 -19 7 -26 -60 -50 -248 -90 -80 -16 -157 -35 -171 -40
-81 -31 -470 -321 -529 -394 -99 -124 -220 -420 -422 -1032 -137 -412 -162
-501 -228 -774 -27 -113 -58 -235 -69 -271 -32 -104 -26 -120 32 -79 40 29 91
100 373 514 408 601 509 733 668 873 81 71 169 125 272 167 39 16 94 44 123
62 45 28 52 37 52 64 0 30 -2 31 -32 26 -18 -2 -77 -21 -131 -41 -54 -20 -113
-36 -132 -36 -53 0 -159 -95 -360 -325 -180 -206 -285 -348 -341 -460 -43 -88
-273 -438 -328 -501 l-35 -39 -1 42 c0 86 54 274 213 728 63 182 131 381 151
443 44 136 92 247 159 366 109 197 175 282 290 370 224 171 502 271 792 283
256 11 384 -33 544 -184 192 -180 373 -411 681 -868 228 -339 389 -558 530
-719 53 -61 117 -138 142 -171 82 -108 139 -157 392 -336 66 -46 156 -116 200
-154 140 -122 185 -145 205 -106 25 47 -31 118 -183 231 -221 164 -470 489
-651 850 -109 216 -285 752 -285 866 0 18 6 34 14 37 8 3 17 27 21 54 19 138
198 590 336 851 66 124 92 189 80 197 -20 12 -123 -180 -321 -596 -77 -161
-144 -297 -150 -303 -7 -7 -10 0 -11 20 -7 149 51 328 264 811 133 300 174
410 160 424 -18 18 -43 -15 -69 -91 -52 -150 -293 -690 -308 -690 -5 0 29 129
107 395 70 239 105 379 156 625 44 210 56 257 71 280 8 13 11 12 24 -5 14 -19
15 -18 36 30 34 78 78 261 94 391 20 159 34 404 41 719 15 679 37 931 101
1188 25 100 52 204 60 231 15 52 19 146 6 146 -22 0 -62 -58 -62 -89 0 -21 -9
-44 -26 -64 -20 -24 -24 -37 -19 -63 4 -22 0 -44 -10 -63 -15 -29 -51 -61 -69
-61 -19 0 31 387 67 510 l12 43 103 -119 c56 -65 102 -124 102 -130 0 -7 -25
-75 -55 -153 -62 -160 -77 -231 -100 -486 -18 -200 -17 -356 2 -362 19 -7 33
63 43 217 13 197 25 283 61 430 31 126 89 270 108 270 15 0 15 -4 -20 -177
-29 -144 -30 -155 -15 -178 21 -32 50 -32 81 0 31 31 34 80 5 88 -25 6 -26 36
-4 103 19 56 31 74 50 74 23 0 84 -61 84 -84 0 -12 -16 -59 -35 -105 -39 -91
-78 -232 -73 -263 2 -12 31 45 68 132 69 163 91 191 126 166 19 -14 19 -16 -8
-94 -15 -44 -62 -151 -104 -238 -144 -301 -171 -399 -140 -506 24 -83 78 -157
255 -348 224 -242 214 -220 301 -675 26 -137 62 -214 131 -283 74 -74 112 -91
222 -101 115 -12 123 -15 137 -57 22 -65 119 -123 206 -124 58 0 137 25 239
75 101 50 162 101 214 176 99 144 290 330 556 544 141 114 213 180 204 190
-10 9 -117 -63 -273 -183 -86 -67 -159 -122 -162 -122 -20 0 114 152 205 233
65 58 175 119 239 132 31 6 33 6 26 -19 -5 -23 -3 -26 20 -26 16 0 38 13 60
35 20 19 40 35 45 35 25 0 41 -14 41 -36 0 -25 -37 -58 -106 -92 -54 -27 -182
-128 -261 -205 -115 -112 -80 -98 177 71 196 129 337 212 359 212 24 0 -17
-38 -84 -77 -61 -35 -115 -80 -115 -95 0 -22 61 -1 210 72 90 44 165 78 167
76 11 -10 -18 -40 -102 -106 -52 -40 -95 -77 -95 -81 0 -29 73 -2 165 61 69
47 123 70 165 70 106 0 406 -167 442 -246 9 -19 8 -28 -8 -45 -52 -58 -275
-138 -638 -230 -256 -64 -473 -125 -596 -165 -288 -96 -801 -349 -818 -403 -3
-10 2 -11 19 -6 57 17 177 69 343 150 346 167 431 196 961 330 366 93 488 127
585 164 41 16 102 35 135 43 55 12 60 16 63 41 4 32 26 45 47 27 39 -33 5 -73
-105 -124 -107 -49 -239 -88 -530 -155 -370 -86 -587 -156 -940 -304 -176 -74
-492 -233 -615 -309 -143 -90 -349 -277 -895 -813 -255 -251 -357 -345 -371
-345 -7 0 -8 11 -4 30 10 47 -14 38 -102 -35 -127 -105 -248 -195 -423 -313
-162 -109 -167 -112 -239 -121 -104 -13 -110 -26 -93 -219 35 -380 230 -809
586 -1281 147 -196 379 -451 410 -451 4 0 2 9 -4 19 -16 31 -12 34 18 11 88
-68 152 -94 152 -63 0 10 -89 105 -198 213 -197 194 -298 310 -430 497 -212
300 -380 646 -428 885 -30 150 -3 285 61 299 221 50 267 63 337 99 165 84 295
193 588 494 768 788 1087 1081 1221 1120 74 22 277 110 469 202 96 47 199 91
230 99 31 8 110 37 176 64 65 27 166 61 223 76 279 70 727 197 818 231 58 21
125 54 153 76 28 21 60 38 71 38 11 0 52 -22 92 -49 122 -82 204 -129 401
-233 325 -170 431 -250 777 -586 277 -268 416 -417 462 -494 50 -82 48 -133
-8 -225 -26 -45 -36 -71 -32 -89 3 -20 0 -28 -14 -31 -53 -14 -24 -175 51
-293 49 -76 80 -86 236 -70 183 18 182 17 579 410 187 185 363 353 391 373 64
46 132 76 249 112 254 76 318 141 476 487 90 196 114 264 134 388 41 239 -16
517 -152 755 -25 44 -86 136 -135 203 -69 97 -88 131 -88 158 0 44 15 51 232
114 257 73 344 111 453 193 103 78 152 174 142 279 -16 180 -215 410 -553 639
-176 118 -242 180 -289 271 -181 349 -430 537 -815 615 -63 13 -135 17 -275
17 -221 1 -319 -13 -586 -79 -187 -47 -269 -61 -293 -52 -12 5 -10 20 15 94
17 48 60 191 95 317 36 127 80 268 99 315 18 47 45 140 59 206 49 220 112 432
147 495 19 34 21 49 16 122 -9 130 -98 522 -163 719 -80 244 -151 344 -486
684 -335 340 -346 354 -483 616 -89 169 -132 236 -199 307 -117 124 -346 235
-574 278 -118 22 -377 15 -511 -15 -391 -87 -1070 -426 -1391 -695 -251 -210
-445 -456 -620 -785 -81 -154 -144 -256 -174 -280 -19 -16 -20 -12 -36 151 -7
71 -31 198 -61 320 -66 269 -79 349 -79 482 0 171 20 261 104 461 54 127 175
363 233 452 46 70 66 136 88 278 29 194 19 253 -59 330 -102 102 -233 126
-421 76z m257 -101 c45 -13 125 -66 151 -101 29 -40 24 -134 -11 -239 -37
-108 -58 -158 -177 -415 -154 -333 -204 -468 -230 -619 -29 -172 -20 -260 60
-591 67 -274 80 -383 71 -625 -6 -194 -14 -251 -33 -257 -22 -8 -34 73 -43
291 -10 228 -17 306 -30 306 -14 0 -22 -140 -30 -595 -8 -404 -20 -629 -35
-644 -27 -27 -47 166 -65 628 -5 139 -12 256 -15 259 -3 3 -5 -123 -5 -279 0
-523 -28 -1260 -49 -1298 -14 -23 -20 89 -26 454 -6 340 -20 661 -32 738 -3
20 -10 37 -16 37 -7 0 -8 -132 -4 -412 7 -409 2 -523 -24 -555 -12 -13 -15
-13 -31 7 -10 12 -18 34 -18 48 0 14 -2 23 -5 20 -3 -3 -14 -117 -25 -254 -23
-288 -29 -333 -40 -313 -24 42 -41 225 -65 694 -23 463 -53 795 -91 1014 -45
263 -153 540 -292 750 -72 108 -222 261 -331 336 -177 123 -260 237 -295 402
-26 126 -163 387 -247 472 -64 64 -107 86 -168 85 -73 0 -101 -16 -191 -109
-41 -42 -96 -88 -122 -101 -27 -13 -48 -28 -48 -32 0 -4 -7 -15 -15 -26 -13
-18 -15 -18 -48 3 -52 32 -71 80 -71 181 0 145 62 305 144 370 50 40 128 75
226 102 65 17 108 21 239 22 158 1 161 0 250 -33 180 -67 215 -73 370 -67 246
9 448 60 860 218 341 131 453 157 557 128z m-2071 -788 c129 -82 309 -404 309
-553 0 -37 -2 -39 -30 -39 -18 0 -121 45 -263 116 -299 149 -397 204 -397 222
0 57 250 282 314 282 12 0 42 -13 67 -28z m4788 -11 c251 -85 525 -262 596
-386 12 -22 26 -59 29 -83 15 -100 126 -286 279 -467 47 -55 176 -190 289
-300 229 -225 285 -298 394 -519 112 -226 117 -249 122 -541 8 -475 -25 -657
-234 -1285 -71 -213 -126 -358 -169 -448 -106 -218 -230 -392 -281 -392 -22 0
-25 -5 -38 -60 -11 -50 -155 -171 -218 -184 -16 -3 -39 -8 -53 -11 -16 -4 -32
-19 -45 -44 -18 -36 -27 -42 -92 -62 -117 -37 -417 -192 -484 -251 -65 -56
-124 -87 -168 -88 -20 0 -27 4 -23 14 3 8 55 88 115 178 190 285 281 441 323
554 28 73 65 114 169 184 146 98 209 188 218 311 6 84 -8 99 -110 130 -102 30
-103 31 -84 120 8 41 20 178 26 304 20 420 24 440 151 615 123 171 148 254 93
311 -95 99 -252 98 -405 -4 -187 -124 -419 -429 -419 -551 0 -92 76 -151 187
-144 53 3 81 13 169 58 59 30 110 57 115 58 17 7 39 -67 39 -127 0 -33 -9
-131 -21 -218 -14 -111 -19 -199 -17 -296 3 -161 9 -151 -117 -214 -38 -20
-94 -51 -124 -70 -34 -22 -57 -31 -63 -25 -14 14 -24 65 -53 259 -27 183 -62
309 -120 428 -36 75 -85 135 -109 135 -47 0 -103 -174 -126 -391 -14 -130 -4
-216 47 -414 31 -119 37 -157 37 -250 1 -94 -3 -117 -22 -160 -34 -74 -76
-111 -187 -165 -71 -34 -125 -69 -185 -122 -103 -90 -164 -136 -345 -263 -167
-117 -235 -172 -235 -191 0 -7 18 -18 41 -24 38 -10 47 -9 116 24 127 61 313
189 493 341 99 84 118 95 159 95 27 0 31 -3 31 -27 0 -40 -48 -117 -121 -198
-64 -71 -94 -97 -209 -177 -36 -25 -113 -86 -170 -134 -58 -48 -150 -121 -205
-161 -116 -86 -528 -363 -539 -363 -9 0 36 85 241 449 224 397 267 487 353
736 53 154 94 312 120 466 33 192 58 219 153 158 93 -59 119 -69 175 -69 140
0 206 111 127 214 -38 49 -160 146 -242 192 -99 56 -147 66 -262 54 -293 -31
-486 -155 -444 -287 15 -47 61 -61 222 -71 171 -10 176 -13 167 -103 -18 -184
-196 -688 -363 -1027 -122 -249 -209 -372 -263 -372 -50 0 -154 -113 -155
-168 0 -23 -5 -27 -32 -30 -25 -3 -33 1 -33 13 0 36 146 213 220 268 29 21 40
36 38 51 -3 18 -9 21 -45 19 -24 -1 -43 3 -43 8 0 5 10 29 21 52 27 52 40 97
29 97 -27 0 -197 -172 -318 -321 -63 -78 -121 -134 -129 -125 -15 15 17 67 93
149 144 155 329 415 310 434 -10 10 -69 -51 -182 -189 -104 -127 -146 -168
-152 -148 -2 6 36 72 86 148 49 75 162 260 251 410 89 151 179 300 201 332 45
66 51 110 21 150 -17 21 -21 22 -36 10 -9 -7 -57 -82 -107 -166 -50 -85 -134
-211 -187 -282 -53 -70 -116 -164 -140 -208 -24 -43 -65 -117 -90 -162 -55
-100 -127 -182 -160 -182 -23 0 -23 1 -16 82 7 77 6 82 -10 68 -26 -22 -61
-97 -109 -238 -52 -151 -90 -232 -111 -232 -19 0 -19 10 5 106 34 139 46 324
20 324 -15 0 -39 -78 -64 -203 -14 -69 -32 -141 -40 -161 l-15 -37 -63 32
c-81 40 -366 208 -373 220 -3 5 -14 73 -25 152 -21 162 -46 279 -96 447 -63
214 -87 370 -100 630 -21 444 110 1256 300 1856 88 277 148 421 235 563 28 46
51 88 51 93 0 14 132 230 193 317 128 179 296 365 452 500 173 149 297 225
656 400 218 106 334 153 412 166 20 3 45 15 55 25 25 27 75 46 184 70 266 60
413 63 567 11z m-5404 -215 c28 -12 104 -57 170 -98 139 -87 291 -171 530
-291 203 -102 283 -153 319 -200 16 -20 40 -38 56 -42 55 -12 156 -88 275
-209 137 -138 203 -223 274 -351 162 -293 201 -519 257 -1490 32 -562 53 -718
144 -1080 20 -79 38 -205 28 -195 -3 3 -43 61 -90 130 -180 268 -602 778 -717
866 -87 67 -59 18 77 -136 97 -109 132 -163 132 -203 0 -33 45 -100 135 -197
175 -191 346 -415 392 -517 14 -32 41 -76 59 -98 36 -46 90 -150 134 -260 58
-146 107 -224 131 -209 19 12 50 -30 69 -95 23 -77 61 -291 53 -304 -12 -20
-290 162 -443 290 -123 103 -362 338 -446 439 -32 39 -99 127 -149 195 -58 80
-141 175 -235 270 -199 201 -311 286 -555 424 -204 115 -363 232 -603 445
-566 498 -775 625 -1141 691 -96 17 -141 20 -266 16 -82 -3 -183 -13 -224 -22
-185 -41 -373 -121 -533 -226 -127 -84 -307 -266 -369 -374 -90 -155 -131
-294 -130 -440 1 -126 19 -185 118 -387 112 -229 130 -246 326 -322 53 -21
100 -42 103 -47 10 -18 -117 -9 -179 12 -264 89 -588 447 -686 759 -51 163
-71 424 -43 564 13 64 153 406 238 581 176 365 436 655 819 917 148 102 218
143 435 261 308 166 417 247 787 579 383 344 434 374 628 377 54 1 82 -5 120
-23z m6105 -2251 c19 -22 -1 -79 -53 -157 -53 -79 -82 -85 -110 -23 -31 65
-46 78 -89 71 -21 -4 -38 -4 -38 -1 0 7 101 85 110 85 5 0 13 -15 20 -34 13
-40 44 -71 61 -61 7 5 9 22 6 50 -8 53 12 85 52 85 16 0 34 -7 41 -15z m-7230
-49 c76 -8 108 -15 95 -20 -11 -5 -114 -44 -230 -88 -350 -133 -463 -194 -566
-305 -90 -99 -140 -197 -249 -488 -72 -193 -87 -240 -100 -315 -12 -74 -8 -94
56 -270 45 -125 43 -145 -16 -137 -60 8 -167 66 -225 122 -41 39 -53 59 -58
92 -4 23 -34 94 -66 158 -72 140 -97 235 -87 338 10 105 23 152 76 262 102
212 301 400 557 529 94 47 262 114 332 132 64 16 286 12 481 -10z m6950 -152
c65 -30 100 -60 100 -86 0 -19 -86 -81 -104 -75 -6 2 -14 19 -17 38 -5 21 -20
44 -41 61 -63 53 -68 58 -68 73 0 24 67 18 130 -11z m-64 -156 c8 -13 -30 -48
-52 -48 -17 0 -18 32 -2 48 15 15 45 15 54 0z m-183 -42 c1 -5 -10 -18 -26
-29 -19 -15 -30 -18 -38 -10 -18 18 8 55 37 51 14 -2 26 -7 27 -12z m137 -69
c0 -14 -80 -57 -105 -57 -31 0 -13 22 38 45 60 29 67 30 67 12z m-3577 -529
c2 -193 -2 -232 -20 -214 -10 10 -17 420 -8 454 l8 27 9 -30 c5 -16 10 -123
11 -237z m3164 162 c9 -17 11 -44 7 -82 -8 -72 -1 -101 29 -117 31 -17 57 -62
57 -101 0 -100 -128 -159 -161 -74 -8 22 -6 31 12 50 21 22 21 28 14 189 -7
159 -7 167 11 163 10 -2 24 -14 31 -28z m-717 -306 c17 -20 17 -98 1 -118 -20
-24 -74 -35 -212 -42 -138 -8 -203 4 -197 34 3 12 14 17 43 18 47 0 85 12 85
25 0 24 50 59 84 59 29 0 36 -4 45 -30 5 -17 17 -33 26 -36 21 -8 45 13 45 40
0 51 52 84 80 50z m161 -52 c54 -35 119 -91 119 -103 0 -14 -87 -11 -123 5
-43 18 -67 46 -74 90 -5 31 -3 36 14 36 10 0 39 -13 64 -28z m1299 -231 l25
-7 -35 -22 c-19 -12 -44 -21 -55 -20 -29 4 -31 36 -3 47 27 11 35 11 68 2z
m1957 -119 c121 -31 217 -67 291 -108 106 -59 183 -146 342 -384 173 -258 209
-299 312 -351 42 -21 93 -55 112 -74 20 -20 45 -35 59 -35 39 0 118 -58 222
-164 130 -132 158 -182 163 -297 9 -178 -35 -240 -226 -324 -213 -93 -315
-104 -442 -44 -94 44 -300 183 -277 187 10 2 32 -1 49 -7 41 -14 45 -8 11 15
-50 34 -203 17 -203 -22 0 -8 79 -66 176 -129 103 -68 174 -120 171 -128 -6
-18 -70 -11 -116 12 -21 11 -74 47 -118 80 -94 71 -214 132 -383 196 -171 65
-336 149 -502 257 -361 233 -578 321 -958 390 -107 19 -160 23 -367 23 -134 0
-243 3 -243 7 0 13 93 44 480 161 259 79 327 103 317 114 -16 15 -118 0 -284
-42 -179 -45 -223 -52 -223 -36 0 4 26 22 58 38 108 57 317 124 507 163 118
24 205 50 205 62 0 22 -161 -1 -385 -54 -194 -45 -185 -45 -185 -15 0 49 60
74 364 153 115 30 230 64 255 76 l46 22 -45 3 c-25 2 -121 -13 -215 -32 -307
-65 -323 -66 -299 -27 19 33 160 92 339 142 226 64 305 90 305 99 0 13 -92 2
-258 -31 -166 -31 -213 -33 -147 -4 122 53 294 97 475 121 161 21 510 14 617
-13z m-2572 -11 c6 -20 -3 -51 -16 -51 -11 0 -39 41 -39 57 0 21 48 16 55 -6z
m-4315 -476 c-14 -407 -12 -466 20 -501 38 -40 42 -146 37 -914 -6 -776 -14
-922 -62 -1119 -31 -127 -44 -154 -45 -91 0 25 -5 209 -10 410 -29 1053 -29
1963 0 2270 18 189 49 334 67 316 3 -3 0 -170 -7 -371z m107 128 c-4 -60 -20
-153 -42 -238 l-35 -140 4 170 c3 109 11 191 21 229 19 70 22 76 42 76 14 0
15 -13 10 -97z m4317 29 c3 -5 -78 -91 -180 -193 -101 -101 -184 -180 -184
-176 0 21 84 205 116 253 35 53 99 106 139 117 33 8 103 8 109 -1z m27 -170
c-42 -106 -163 -286 -288 -426 -48 -55 -106 -127 -128 -160 -22 -33 -78 -94
-125 -136 l-85 -75 -3 29 c-5 40 21 103 69 167 22 30 48 72 58 94 10 22 49 76
86 120 79 92 415 435 427 435 4 0 -1 -22 -11 -48z m-3271 -102 c24 -46 26 -80
5 -80 -20 0 -45 52 -45 95 0 43 13 39 40 -15z m-1054 -375 c8 -20 -4 -65 -16
-65 -6 0 -10 18 -10 40 0 40 15 54 26 25z m763 -61 c18 -13 22 -22 17 -47 -15
-77 -120 -188 -228 -243 -26 -13 -50 -24 -53 -24 -3 0 24 58 60 129 45 88 78
141 105 165 44 40 64 44 99 20z m4536 -14 c366 -34 613 -121 1045 -370 80 -46
228 -124 330 -173 102 -49 240 -115 306 -148 148 -71 234 -137 374 -290 290
-314 380 -437 395 -543 5 -31 17 -60 35 -80 46 -52 55 -102 55 -306 0 -150 -3
-196 -18 -243 -36 -115 -64 -32 -50 148 4 62 5 111 2 109 -4 -2 -9 -18 -11
-36 -23 -158 -83 -484 -98 -526 -29 -81 -85 -174 -142 -237 -60 -66 -82 -79
-163 -95 -131 -26 -399 -177 -471 -265 -145 -179 -335 -375 -362 -375 -8 0
-69 -53 -136 -119 -142 -139 -169 -155 -235 -146 -35 5 -63 1 -106 -14 -75
-26 -81 -26 -110 4 -20 20 -25 34 -25 77 1 29 9 76 18 103 16 47 19 50 56 55
36 4 41 9 49 40 14 54 2 177 -26 252 -47 130 -100 202 -287 393 -97 99 -198
207 -225 239 -144 172 -449 400 -770 576 -267 147 -403 232 -576 362 -165 123
-301 212 -481 314 -49 27 -88 52 -88 55 0 9 82 -7 162 -31 78 -24 108 -25 108
-6 0 51 -233 123 -523 161 -119 16 -253 18 -382 6 -135 -12 -149 -1 -95 80 37
56 58 72 286 219 214 138 286 190 429 309 178 148 346 249 554 331 249 99 414
134 746 160 287 22 297 22 430 10z m-4337 -116 c42 -27 26 -37 -79 -50 -69 -8
-105 7 -89 36 21 39 116 47 168 14z m2632 -3 c0 -47 -419 -480 -453 -468 -18
6 -8 48 19 84 25 32 31 53 16 53 -16 0 -97 -63 -167 -130 -74 -70 -173 -142
-230 -166 -39 -16 -85 -19 -85 -5 0 22 134 125 437 339 307 216 437 302 455
302 4 0 8 -4 8 -9z m-1157 -155 c-29 -40 -50 -61 -54 -54 -4 7 -1 24 6 38 15
29 84 94 92 87 2 -3 -17 -34 -44 -71z m-1262 -23 c25 -11 97 -58 160 -103 128
-93 207 -133 294 -149 33 -6 170 -16 305 -21 135 -5 261 -14 280 -20 19 -5 54
-24 78 -41 23 -17 58 -35 77 -40 65 -18 224 -171 309 -298 35 -51 35 -53 20
-83 -9 -17 -48 -65 -87 -107 -94 -100 -184 -212 -315 -395 -171 -238 -272
-365 -334 -419 -34 -30 -60 -62 -63 -78 -20 -88 -203 -162 -323 -130 -32 9
-59 29 -109 81 -75 78 -118 100 -196 100 -167 1 -238 122 -306 526 -43 253
-45 257 -306 524 -175 179 -218 234 -236 303 -34 125 85 267 278 331 112 37
172 45 308 42 94 -2 130 -7 166 -23z m829 -83 c0 -12 -11 -32 -25 -45 -26 -27
-65 -33 -65 -11 0 20 55 76 74 76 9 0 16 -8 16 -20z m-1480 -3422 c-1 -23 -33
-55 -167 -161 -128 -102 -268 -195 -279 -185 -13 14 299 282 386 332 51 29 60
31 60 14z"/>
<path d="M4725 11290 c-8 -13 0 -58 47 -245 48 -195 82 -390 103 -595 17 -169
41 -300 55 -300 20 0 23 61 16 289 -4 154 -3 232 4 225 9 -9 34 -161 45 -274
6 -59 19 -90 32 -76 4 4 7 72 7 149 -3 263 -84 727 -127 727 -10 0 -4 -211 8
-305 3 -22 -28 51 -69 163 -66 181 -98 252 -111 252 -2 0 -7 -4 -10 -10z"/>
<path d="M5073 11133 c-12 -41 -8 -398 4 -468 6 -33 17 -73 23 -90 11 -29 12
-29 23 -10 18 29 14 462 -4 534 -16 62 -35 76 -46 34z"/>
<path d="M5215 11050 c-24 -79 -33 -327 -12 -355 15 -20 16 -19 28 10 16 38
25 356 11 381 -8 15 -13 9 -27 -36z"/>
<path d="M7965 11015 c28 -153 47 -351 52 -540 6 -251 -1 -325 -53 -549 -62
-263 -20 -227 55 48 55 199 72 322 72 506 0 222 -30 373 -102 509 -22 43 -28
49 -24 26z"/>
<path d="M8127 10971 c-3 -15 1 -77 9 -137 41 -301 39 -465 -7 -708 -11 -59
-17 -111 -14 -115 12 -12 54 49 70 101 58 197 69 620 20 784 -15 50 -48 104
-64 104 -5 0 -11 -13 -14 -29z"/>
<path d="M8759 10803 c-6 -16 -17 -128 -25 -250 -26 -429 -79 -696 -229 -1153
-45 -140 -86 -268 -89 -285 l-6 -30 21 25 c41 48 135 255 185 408 66 202 141
582 179 897 15 130 20 369 9 399 -10 25 -33 19 -45 -11z"/>
<path d="M8941 10426 c-11 -29 -29 -118 -41 -197 -49 -325 -114 -584 -206
-818 -64 -160 -71 -196 -38 -189 63 12 234 535 309 941 43 239 29 404 -24 263z"/>
<path d="M7300 10169 c0 -8 14 -61 30 -118 70 -242 94 -415 94 -676 -1 -402
-63 -897 -151 -1205 -42 -150 -61 -240 -50 -240 27 0 174 372 232 585 59 222
116 685 119 970 1 121 -2 166 -13 185 l-14 24 -8 -22 c-8 -21 -17 -116 -38
-392 l-8 -105 -2 80 c-8 420 -85 834 -170 909 -16 14 -21 16 -21 5z"/>
<path d="M9443 9783 c-11 -15 -44 -71 -73 -123 -80 -145 -159 -254 -270 -374
-55 -60 -100 -115 -100 -123 0 -45 111 37 221 164 79 90 174 229 205 299 53
120 64 226 17 157z"/>
<path d="M9543 9657 c-64 -68 -301 -398 -316 -440 -17 -48 22 -39 81 17 58 54
285 436 269 452 -2 2 -17 -11 -34 -29z"/>
<path d="M7746 9633 c-3 -21 -6 -81 -6 -133 0 -134 -16 -302 -51 -545 -36
-255 -60 -372 -98 -490 -37 -113 -45 -151 -32 -159 56 -35 151 320 212 789 26
206 32 492 10 543 -18 42 -27 41 -35 -5z"/>
<path d="M7941 9426 c-6 -8 -16 -56 -22 -107 -11 -99 -82 -466 -122 -631 -13
-54 -23 -98 -21 -98 7 0 55 89 69 130 45 125 139 607 133 678 -3 39 -18 51
-37 28z"/>
<path d="M9594 8290 c-118 -60 -280 -238 -360 -398 -41 -80 -47 -102 -48 -157
-1 -74 19 -105 67 -105 34 0 112 37 176 85 112 82 297 294 358 410 32 62 27
108 -17 150 -40 39 -117 45 -176 15z m91 -120 c9 -14 -42 -62 -62 -58 -25 5
-27 24 -4 47 22 22 56 28 66 11z m-159 -95 c16 -25 16 -27 -6 -50 -17 -18 -23
-35 -22 -65 2 -52 -16 -86 -69 -135 l-42 -38 -19 23 c-10 12 -18 31 -18 42 0
16 5 18 35 12 31 -5 36 -3 45 21 5 14 10 45 10 68 0 75 30 147 60 147 5 0 17
-11 26 -25z"/>
<path d="M5967 7803 c-3 -5 5 -54 18 -108 103 -438 143 -1018 90 -1306 -17
-92 -16 -129 3 -129 14 0 32 48 32 84 0 50 12 51 30 4 21 -58 50 -59 68 -3 28
85 36 225 37 640 0 396 -6 499 -25 435 -5 -14 -8 -147 -9 -296 -1 -273 -8
-394 -21 -394 -14 0 -19 27 -30 142 -23 258 -32 339 -51 457 -25 158 -55 299
-81 381 -20 64 -50 110 -61 93z m208 -1313 c-4 -17 -11 -30 -16 -30 -10 0 -12
73 -2 84 12 12 25 -24 18 -54z"/>
<path d="M6376 7209 c-4 -41 -11 -213 -16 -384 -7 -262 -12 -322 -29 -385 -11
-41 -21 -90 -21 -108 0 -29 3 -33 23 -30 14 2 29 16 40 40 23 48 41 428 34
717 -6 212 -20 281 -31 150z"/>
<path d="M5768 7242 c-3 -10 -1 -45 3 -78 5 -32 14 -93 19 -134 6 -41 15 -189
20 -327 8 -243 19 -320 34 -259 16 65 24 273 15 393 -19 252 -71 483 -91 405z"/>
<path d="M6504 6923 c-12 -28 -18 -323 -6 -323 16 0 52 157 52 229 0 44 -18
111 -29 111 -5 0 -12 -8 -17 -17z"/>
<path d="M8001 6411 c-21 -21 -29 -61 -11 -61 19 0 80 34 77 44 -2 5 -13 16
-24 23 -19 13 -24 12 -42 -6z"/>
<path d="M3453 10394 c-7 -18 3 -36 94 -179 36 -55 82 -138 104 -185 54 -113
54 -113 67 -118 20 -6 14 25 -23 113 -62 152 -188 366 -220 379 -9 3 -18 -1
-22 -10z"/>
<path d="M3370 10201 c0 -5 23 -42 51 -83 123 -179 162 -242 227 -373 72 -145
111 -205 112 -173 1 47 -93 246 -205 438 -67 114 -185 236 -185 191z"/>
<path d="M3395 9943 c15 -35 38 -79 184 -353 30 -58 81 -163 111 -234 59 -136
89 -174 76 -96 -16 103 -121 338 -232 521 -98 164 -178 257 -139 162z"/>
<path d="M3337 9754 c-8 -8 15 -50 52 -94 39 -46 50 -32 18 22 -28 48 -60 81
-70 72z"/>
<path d="M3460 9569 c0 -17 105 -204 148 -263 46 -63 52 -45 11 36 -49 99
-159 256 -159 227z"/>
<path d="M3673 9180 c9 -43 29 -83 45 -88 18 -6 15 23 -8 68 -27 53 -45 63
-37 20z"/>
<path d="M3746 9023 c-9 -10 -7 -71 3 -77 11 -7 21 17 21 49 0 25 -12 39 -24
28z"/>
<path d="M4751 8532 c20 -89 108 -303 143 -347 15 -20 15 -20 16 5 0 36 -56
195 -104 291 -46 93 -70 114 -55 51z"/>
<path d="M4565 8473 c3 -16 39 -84 80 -153 90 -152 144 -264 152 -316 6 -36 5
-38 -11 -24 -10 8 -49 58 -87 111 -38 54 -105 136 -150 184 -153 161 -187 161
-64 -1 41 -55 116 -152 165 -217 49 -65 112 -156 139 -201 28 -45 60 -91 71
-101 l22 -20 -7 58 c-5 39 -4 57 4 57 44 0 -52 258 -174 467 -89 151 -158 228
-140 156z"/>
<path d="M11593 5794 c-8 -22 10 -49 32 -49 10 0 22 7 28 16 15 24 1 49 -28
49 -15 0 -28 -7 -32 -16z"/>
<path d="M8908 5798 c-50 -13 -48 -33 5 -47 53 -16 337 -25 356 -13 25 18 3
49 -44 61 -53 13 -266 13 -317 -1z"/>
<path d="M8750 5603 c-177 -8 -405 -25 -509 -39 -209 -27 -609 -145 -693 -205
-27 -19 -39 -59 -18 -59 6 0 99 29 208 64 197 63 382 111 404 104 6 -2 -14
-17 -45 -32 -32 -15 -57 -32 -57 -38 0 -12 155 -8 475 12 137 9 233 9 401 0
168 -10 226 -10 242 -1 28 15 28 37 0 52 -34 18 -308 30 -626 27 -161 -2 -292
-1 -292 2 0 9 212 40 345 50 72 6 265 10 430 9 288 -1 375 4 375 21 0 14 -32
21 -135 30 -92 9 -351 10 -505 3z"/>
<path d="M8525 5319 c-49 -5 -105 -14 -124 -20 -63 -21 -9 -30 246 -39 247
-10 344 -20 395 -41 38 -16 60 -5 56 27 -5 44 -42 63 -148 74 -111 11 -298 11
-425 -1z"/>
<path d="M7550 5254 c-108 -9 -150 -16 -150 -23 0 -15 71 -21 355 -31 324 -12
421 -22 525 -55 133 -43 196 -33 103 17 -57 30 -182 62 -308 78 -94 11 -447
21 -525 14z"/>
<path d="M11363 3743 c6 -101 33 -203 61 -231 14 -14 16 -13 26 14 26 67 -35
314 -78 314 -13 0 -14 -14 -9 -97z"/>
<path d="M11200 3723 c0 -72 44 -274 74 -339 21 -45 29 -55 39 -45 20 20 14
147 -12 231 -27 88 -78 200 -92 200 -5 0 -9 -21 -9 -47z"/>
<path d="M11080 3682 c0 -10 6 -41 14 -68 8 -27 24 -98 36 -159 21 -111 39
-150 61 -128 42 42 -3 295 -62 354 -24 24 -49 24 -49 1z"/>
<path d="M10500 3654 c0 -11 24 -51 65 -104 54 -72 106 -155 195 -315 81 -145
137 -228 150 -220 24 15 -74 235 -185 415 -63 101 -179 230 -208 230 -9 0 -17
-3 -17 -6z"/>
<path d="M10640 3257 c0 -12 16 -76 35 -141 21 -72 35 -141 35 -173 0 -45 3
-54 16 -51 9 2 26 15 37 31 20 25 20 32 9 97 -22 131 -132 328 -132 237z"/>
<path d="M10664 2647 c-26 -23 -29 -57 -5 -57 21 0 64 47 58 63 -9 23 -21 21
-53 -6z"/>
<path d="M5705 4764 c-9 -96 0 -313 14 -327 18 -18 31 41 31 144 0 104 -16
238 -30 253 -4 4 -11 -27 -15 -70z"/>
<path d="M5846 4698 c-25 -40 -37 -103 -26 -134 15 -38 38 -53 83 -54 56 0 89
38 71 84 -8 22 -27 20 -49 -4 -26 -29 -35 -25 -35 18 0 53 -11 112 -21 112 -5
0 -15 -10 -23 -22z"/>
<path d="M5152 4713 c-5 -10 -29 -76 -52 -148 -44 -133 -108 -292 -199 -493
-63 -140 -103 -252 -92 -252 57 0 340 678 358 858 6 53 1 65 -15 35z"/>
<path d="M8110 4668 c-62 -28 -145 -56 -435 -149 -137 -44 -308 -100 -380
-125 -127 -44 -341 -142 -331 -151 5 -5 1001 301 1127 347 85 30 137 68 124
89 -10 17 -55 12 -105 -11z"/>
<path d="M5176 4353 c-13 -27 -48 -106 -79 -178 -30 -71 -73 -168 -96 -214
-53 -111 -55 -188 -3 -113 70 99 222 471 222 544 0 23 -22 3 -44 -39z"/>
<path d="M5094 3158 c-11 -12 -45 -68 -74 -123 -65 -122 -130 -211 -269 -369
-150 -169 -202 -236 -196 -247 13 -20 85 40 188 158 242 276 385 498 375 581
l-3 24 -21 -24z"/>
<path d="M4423 2768 c-4 -7 -17 -33 -29 -58 -28 -61 -78 -137 -204 -315 -140
-197 -162 -232 -149 -241 6 -3 24 7 41 22 98 92 389 550 374 589 -7 18 -22 19
-33 3z"/>
<path d="M4573 2728 c-22 -29 -59 -82 -83 -118 -75 -112 -154 -211 -249 -313
-63 -68 -91 -106 -91 -123 0 -13 6 -24 13 -24 30 0 197 191 297 340 99 148
168 275 157 286 -3 3 -23 -18 -44 -48z"/>
<path d="M2100 1884 c-314 -36 -462 -78 -587 -168 -28 -20 -74 -43 -101 -51
-71 -22 -192 -135 -192 -181 0 -20 78 15 189 85 164 102 276 158 354 176 154
35 422 65 588 65 85 0 99 -3 128 -24 19 -14 54 -27 84 -31 133 -17 453 -213
655 -400 40 -37 113 -119 164 -183 51 -65 158 -193 238 -287 198 -232 216
-254 234 -299 33 -79 321 -328 503 -434 127 -74 321 -152 380 -152 16 0 23 6
23 20 0 24 -36 47 -230 150 -170 89 -254 144 -329 214 -100 94 -590 659 -750
865 -131 168 -178 219 -275 297 -106 86 -233 164 -381 235 -168 82 -246 99
-475 103 -102 3 -201 2 -220 0z"/>
</g>
</svg>
