<?xml version="1.0" encoding="UTF-8"?>
<svg xmlns="http://www.w3.org/2000/svg" xmlns:xlink="http://www.w3.org/1999/xlink" width="3001" height="3000" viewBox="0 0 3001 3000">
<path fill-rule="evenodd" fill="rgb(0%, 0%, 0%)" fill-opacity="1" d="M 1449.789062 1424.03125 C 1342.980469 1419.078125 1255.601562 1372.519531 1164.140625 1320.261719 C 1044.449219 1251.871094 950.589844 1162.238281 921.5 1023.558594 C 904.988281 944.859375 908.597656 887.601562 927.816406 844.371094 C 949.828125 794.878906 992.234375 764.648438 1044.789062 740.96875 C 1101.03125 715.628906 1168.671875 697.960938 1237.78125 675.371094 C 1313.300781 650.679688 1383.070312 604.140625 1463.390625 596.03125 C 1533.070312 588.988281 1605.628906 617.339844 1655.921875 665.328125 C 1705.230469 712.390625 1733.160156 778.71875 1713.828125 849.570312 C 1711.289062 858.890625 1716.789062 868.519531 1726.109375 871.058594 C 1735.429688 873.601562 1745.058594 868.101562 1747.601562 858.78125 C 1770.511719 774.78125 1738.539062 695.789062 1680.078125 640.011719 C 1622.601562 585.160156 1539.511719 553.160156 1459.878906 561.210938 C 1377.050781 569.570312 1304.78125 616.648438 1226.898438 642.109375 C 1156.53125 665.109375 1087.679688 683.261719 1030.421875 709.058594 C 969.472656 736.519531 921.359375 772.761719 895.835938 830.148438 C 874.3125 878.550781 868.753906 942.609375 887.242188 1030.75 C 918.511719 1179.789062 1018.128906 1277.140625 1146.78125 1350.648438 C 1243.160156 1405.730469 1335.609375 1453.78125 1448.171875 1459 C 1457.808594 1459.441406 1466.011719 1451.96875 1466.460938 1442.320312 C 1466.910156 1432.679688 1459.441406 1424.480469 1449.789062 1424.03125 "/>
<path fill-rule="evenodd" fill="rgb(0%, 0%, 0%)" fill-opacity="1" d="M 1459.671875 1455.371094 L 1460.011719 1455.160156 C 1471.261719 1448.421875 1528.820312 1416.710938 1544.269531 1414.609375 C 1553.839844 1413.308594 1560.558594 1404.488281 1559.261719 1394.921875 C 1557.960938 1385.351562 1549.140625 1378.628906 1539.570312 1379.929688 C 1521.800781 1382.339844 1454.949219 1417.390625 1442.019531 1425.140625 C 1429.019531 1432.929688 1432.058594 1446.070312 1432.308594 1446.851562 C 1435.261719 1456.050781 1445.121094 1461.128906 1454.308594 1458.179688 C 1456.308594 1457.539062 1458.109375 1456.578125 1459.671875 1455.371094 Z M 1464.71875 1449.140625 L 1464.648438 1449.289062 L 1464.660156 1449.28125 Z M 1465.929688 1437.171875 C 1466.929688 1441.089844 1466.53125 1445.070312 1464.988281 1448.539062 C 1467 1444.070312 1466.738281 1440.210938 1465.929688 1437.171875 "/>
<path fill-rule="evenodd" fill="rgb(0%, 0%, 0%)" fill-opacity="1" d="M 1532.550781 1381.75 C 1527.378906 1383.070312 1522.910156 1386.738281 1520.71875 1391.988281 C 1517.238281 1400.359375 1520.730469 1410 1528.761719 1414.210938 C 1547.769531 1424.160156 1570.699219 1445.621094 1593.679688 1466.320312 C 1619.519531 1489.589844 1645.488281 1511.878906 1666.25 1520.648438 C 1716.011719 1541.660156 1783.269531 1533.46875 1836.210938 1540.960938 C 2060.070312 1572.640625 2274.96875 1563.089844 2343.640625 1309.980469 C 2368.070312 1219.941406 2375.660156 1129.871094 2325.75 1047.269531 C 2311.128906 1023.070312 2289.011719 1009.578125 2265.710938 997.089844 C 2247.230469 987.179688 2227.839844 978.078125 2213.871094 960.421875 C 2154.828125 885.851562 2084.511719 793.371094 1990.910156 764.269531 C 1907.550781 738.359375 1833.46875 750.210938 1764.109375 804.160156 C 1627.921875 910.078125 1614.890625 987.671875 1608.589844 1082.320312 C 1604.660156 1141.28125 1603.820312 1207.421875 1573.628906 1293.339844 C 1572.019531 1297.941406 1557.699219 1336.851562 1543.710938 1363.871094 C 1540.128906 1370.769531 1534.769531 1378.589844 1532.550781 1381.75 Z M 1565.378906 1396.320312 C 1582.710938 1369.390625 1604.558594 1310.878906 1606.648438 1304.941406 C 1638.171875 1215.21875 1639.410156 1146.210938 1643.511719 1084.648438 C 1649.25 998.5 1661.648438 928.191406 1785.601562 831.789062 C 1845.199219 785.429688 1908.890625 775.429688 1980.519531 797.699219 C 2067.648438 824.78125 2131.46875 912.730469 2186.429688 982.148438 C 2203.519531 1003.738281 2226.558594 1015.808594 2249.171875 1027.941406 C 2266.980469 1037.480469 2284.628906 1046.878906 2295.789062 1065.371094 C 2340.5 1139.359375 2331.75 1220.160156 2309.859375 1300.808594 C 2246.820312 1533.171875 2046.621094 1535.390625 1841.109375 1506.308594 C 1814.820312 1502.578125 1784.960938 1502.871094 1755.488281 1501.53125 C 1728.738281 1500.320312 1702.289062 1497.871094 1679.859375 1488.398438 C 1661.75 1480.761719 1639.640625 1460.609375 1617.109375 1440.320312 C 1599.460938 1424.421875 1581.648438 1408.339844 1565.378906 1396.320312 "/>
<path fill-rule="evenodd" fill="rgb(0%, 0%, 0%)" fill-opacity="1" d="M 1667.871094 1521.238281 C 1703.289062 1532.230469 1777.160156 1538.839844 1858.359375 1543.921875 C 1966.761719 1550.710938 2081.101562 1566.019531 2188.121094 1600.199219 C 2257.488281 1622.351562 2331.460938 1654.808594 2378.101562 1713.328125 C 2412.859375 1756.929688 2401.199219 1796.398438 2377.578125 1833.488281 C 2349.648438 1877.351562 2306.570312 1918.53125 2286.410156 1958.871094 C 2262.890625 2005.894531 2249.429688 2052.480469 2230.050781 2095.5625 C 2211.980469 2135.71875 2188.53125 2172.710938 2144.441406 2203.421875 C 2096.058594 2237.128906 2035.898438 2234.855469 1980.261719 2223.539062 C 1842.570312 2195.535156 1767.03125 2106.277344 1718.621094 1996.46875 C 1685.300781 1920.878906 1664.679688 1835.640625 1646.101562 1753 C 1637.121094 1713.050781 1623.328125 1679.441406 1615.191406 1647.949219 C 1604.441406 1606.371094 1605 1568.96875 1647.859375 1523.058594 C 1654.441406 1516 1654.058594 1504.910156 1647 1498.320312 C 1639.941406 1491.730469 1628.859375 1492.121094 1622.269531 1499.179688 C 1568.230469 1557.070312 1567.738281 1604.289062 1581.300781 1656.710938 C 1589.371094 1687.890625 1603.058594 1721.128906 1611.949219 1760.679688 C 1660.5 1976.628906 1725.601562 2207.464844 1973.289062 2257.839844 C 2038.171875 2271.035156 2108.03125 2271.445312 2164.449219 2232.140625 C 2214.511719 2197.269531 2241.460938 2155.515625 2261.96875 2109.921875 C 2281.160156 2067.253906 2294.429688 2021.089844 2317.710938 1974.519531 C 2337.410156 1935.121094 2379.820312 1895.128906 2407.109375 1852.28125 C 2438.710938 1802.660156 2451.980469 1749.859375 2405.46875 1691.511719 C 2354.558594 1627.640625 2274.5 1591.039062 2198.769531 1566.859375 C 2089 1531.800781 1971.738281 1515.960938 1860.550781 1508.988281 C 1782.871094 1504.128906 1712.128906 1498.328125 1678.238281 1487.808594 C 1669.019531 1484.949219 1659.199219 1490.109375 1656.339844 1499.339844 C 1653.480469 1508.558594 1658.640625 1518.371094 1667.871094 1521.238281 "/>
<path fill-rule="evenodd" fill="rgb(0%, 0%, 0%)" fill-opacity="1" d="M 1799.128906 2169.429688 C 1808.738281 2200.058594 1811.121094 2208.261719 1799 2241.113281 C 1787.109375 2273.3125 1760.480469 2295.929688 1729.898438 2313.207031 C 1696.761719 2331.929688 1658.789062 2344.296875 1626.789062 2354.144531 C 1565.53125 2372.992188 1500.699219 2404.015625 1435.78125 2404.996094 C 1328.671875 2406.621094 1200.890625 2345.070312 1119.058594 2253.539062 C 1065.53125 2193.660156 1031.578125 2120.734375 1037.800781 2043.753906 C 1049.988281 1892.988281 1174.539062 1750.761719 1291.71875 1666.570312 C 1335.429688 1635.171875 1367.578125 1622.570312 1394.78125 1620.421875 C 1421.53125 1618.308594 1443.089844 1626.320312 1465.628906 1634.328125 C 1501.308594 1647.011719 1538.921875 1660.121094 1595.308594 1648.25 C 1604.761719 1646.261719 1610.820312 1636.980469 1608.828125 1627.519531 C 1606.839844 1618.070312 1597.550781 1612.011719 1588.101562 1614.011719 C 1539.910156 1624.148438 1507.839844 1612.191406 1477.351562 1601.351562 C 1450.261719 1591.71875 1424.171875 1582.988281 1392.011719 1585.53125 C 1360.300781 1588.039062 1322.269531 1601.519531 1271.289062 1638.148438 C 1146.558594 1727.761719 1015.890625 1880.441406 1002.921875 2040.9375 C 995.933594 2127.347656 1032.878906 2209.652344 1092.96875 2276.863281 C 1181.570312 2375.972656 1320.339844 2441.75 1436.308594 2439.992188 C 1504.460938 2438.960938 1572.769531 2407.382812 1637.078125 2387.597656 C 1678.339844 2374.902344 1728.660156 2357.949219 1768.359375 2330.398438 C 1796.839844 2310.640625 1819.929688 2285.488281 1831.828125 2253.230469 C 1847.78125 2210.023438 1845.160156 2199.238281 1832.53125 2158.953125 C 1829.640625 2149.738281 1819.808594 2144.601562 1810.589844 2147.492188 C 1801.378906 2150.386719 1796.238281 2160.214844 1799.128906 2169.429688 "/>
<path fill-rule="evenodd" fill="rgb(0%, 0%, 0%)" fill-opacity="1" d="M 1465.890625 1445.980469 C 1467.300781 1440.640625 1466.160156 1434.730469 1462.328125 1430.199219 C 1455.128906 1421.710938 1447.339844 1423.089844 1442.46875 1424.910156 C 1439.851562 1425.878906 1431.011719 1430.058594 1430.710938 1442.851562 C 1430.5 1451.671875 1435.601562 1489.839844 1428.058594 1525.03125 C 1423.929688 1544.320312 1416.191406 1563.101562 1398.769531 1572.339844 C 1327.171875 1610.328125 1221.960938 1657.621094 1156.039062 1740.960938 C 1097.539062 1814.910156 1012.851562 1925.03125 919.78125 1954.359375 C 854.984375 1974.789062 794.117188 1931.820312 742.691406 1868 C 660.398438 1765.898438 603.3125 1607.738281 600.9375 1527.808594 C 598.535156 1446.96875 630.847656 1368.351562 675.289062 1302.320312 C 711.632812 1248.320312 760.253906 1205.660156 825.84375 1193.191406 C 893.898438 1180.25 939.808594 1198.160156 984.6875 1229.828125 C 1016.828125 1252.519531 1048.429688 1281.890625 1086.25 1312.558594 C 1093.75 1318.640625 1104.78125 1317.488281 1110.859375 1309.980469 C 1116.941406 1302.480469 1115.789062 1291.449219 1108.289062 1285.371094 C 1069.800781 1254.160156 1037.589844 1224.328125 1004.871094 1201.238281 C 952.46875 1164.25 898.773438 1143.699219 819.308594 1158.808594 C 744.21875 1173.078125 687.859375 1220.960938 646.253906 1282.78125 C 597.804688 1354.761719 563.335938 1440.71875 565.953125 1528.839844 C 568.46875 1613.609375 628.171875 1781.679688 715.4375 1889.96875 C 777.058594 1966.421875 852.664062 2012.21875 930.304688 1987.738281 C 1029.339844 1956.53125 1121.238281 1841.359375 1183.488281 1762.671875 C 1246.210938 1683.371094 1347.039062 1639.410156 1415.171875 1603.261719 C 1441.820312 1589.121094 1455.960938 1561.871094 1462.289062 1532.371094 C 1469.390625 1499.191406 1466.691406 1456.308594 1465.890625 1445.980469 Z M 1449.199219 1459.011719 C 1444.160156 1459.070312 1439.128906 1456.96875 1435.628906 1452.828125 C 1440.210938 1458.238281 1445.078125 1459.378906 1449.199219 1459.011719 "/>
<path fill-rule="evenodd" fill="rgb(0%, 0%, 0%)" fill-opacity="1" d="M 1823.898438 1166.421875 C 1824.109375 1164.660156 1824.050781 1162.851562 1823.691406 1161.019531 C 1821.839844 1151.550781 1812.628906 1145.359375 1803.160156 1147.21875 C 1788.871094 1150.019531 1787.128906 1162.03125 1787.46875 1166.839844 C 1788 1174.230469 1792.160156 1180.328125 1800.300781 1182.710938 C 1803.421875 1183.609375 1809.101562 1184.699219 1816.019531 1180.160156 C 1820.878906 1176.988281 1823.628906 1171.800781 1823.898438 1166.421875 Z M 1811.070312 1181.28125 L 1810.910156 1181.328125 L 1810.96875 1181.308594 Z M 1797.769531 1150.320312 L 1797.691406 1150.371094 L 1798.03125 1150.179688 Z M 1798.679688 1149.839844 L 1798.539062 1149.910156 L 1798.859375 1149.761719 Z M 1799.558594 1149.441406 L 1799.550781 1149.441406 L 1799.570312 1149.429688 L 1799.558594 1149.441406 "/>
<path fill-rule="evenodd" fill="rgb(0%, 0%, 0%)" fill-opacity="1" d="M 1812.921875 1140.730469 C 1810.828125 1141.019531 1808.71875 1141.5 1806.648438 1141.910156 C 1797.179688 1143.820312 1791.039062 1153.050781 1792.941406 1162.519531 C 1794.851562 1171.988281 1804.078125 1178.128906 1813.550781 1176.21875 C 1814.949219 1175.941406 1816.378906 1175.589844 1817.789062 1175.390625 C 1827.351562 1174.050781 1834.03125 1165.191406 1832.679688 1155.628906 C 1831.339844 1146.058594 1822.480469 1139.390625 1812.921875 1140.730469 "/>
<path fill-rule="evenodd" fill="rgb(0%, 0%, 0%)" fill-opacity="1" d="M 1871.089844 1210.71875 C 1870.429688 1204.71875 1866.671875 1199.230469 1860.75 1196.621094 C 1845.21875 1189.800781 1838.058594 1200.28125 1836.769531 1202.199219 C 1834.539062 1205.519531 1831.238281 1212.28125 1836.191406 1221.03125 C 1836.640625 1221.828125 1838.730469 1223.628906 1839.691406 1226.039062 C 1843.28125 1235.011719 1853.46875 1239.378906 1862.441406 1235.789062 C 1871.410156 1232.199219 1875.769531 1222.011719 1872.191406 1213.039062 C 1871.890625 1212.300781 1871.519531 1211.511719 1871.089844 1210.71875 "/>
<path fill-rule="evenodd" fill="rgb(0%, 0%, 0%)" fill-opacity="1" d="M 1889.539062 1339.328125 C 1894.101562 1331.511719 1891.929688 1321.371094 1884.359375 1316.140625 C 1878.46875 1312.070312 1871.160156 1311.449219 1864.621094 1314.089844 C 1859.21875 1316.261719 1854.75 1320.761719 1852.648438 1325.640625 C 1851.25 1328.890625 1850.480469 1336.160156 1852.359375 1342.929688 C 1854.238281 1349.679688 1858.53125 1355.199219 1860.46875 1356.75 C 1866.550781 1361.589844 1872.609375 1361.390625 1877.511719 1359.671875 C 1881.128906 1358.410156 1887.550781 1355.519531 1889.308594 1345.46875 C 1889.691406 1343.300781 1889.75 1341.25 1889.539062 1339.328125 Z M 1862.578125 1355.378906 L 1862.640625 1355.410156 L 1862.519531 1355.351562 L 1862.578125 1355.378906 "/>
<path fill-rule="evenodd" fill="rgb(0%, 0%, 0%)" fill-opacity="1" d="M 1809.648438 1466.910156 C 1809.941406 1466.460938 1810.191406 1466.03125 1810.378906 1465.628906 C 1812.929688 1460.351562 1812.351562 1455.671875 1811.558594 1452.859375 C 1810.839844 1450.339844 1809.691406 1448.160156 1808.128906 1446.308594 C 1805.5 1439.300781 1798.519531 1434.511719 1790.660156 1435 C 1780.488281 1435.628906 1773.171875 1442.679688 1771.050781 1452.171875 C 1769.289062 1460.03125 1771.941406 1468.828125 1777.621094 1474.039062 C 1786.769531 1482.460938 1794.320312 1480.28125 1798.730469 1478.511719 C 1803.011719 1476.789062 1806.449219 1473.601562 1808.570312 1469.5 C 1809 1468.660156 1809.359375 1467.789062 1809.648438 1466.910156 Z M 1807.078125 1470.351562 C 1804.378906 1473.988281 1801.460938 1475.910156 1798.628906 1476.800781 C 1800.261719 1476.199219 1801.96875 1475.269531 1803.710938 1473.921875 C 1804.269531 1473.488281 1805.671875 1472.039062 1807.078125 1470.351562 Z M 1789.289062 1474.339844 C 1791.628906 1475.160156 1794.691406 1475.570312 1798.578125 1474.519531 C 1795.421875 1475.328125 1792.230469 1475.210938 1789.289062 1474.339844 Z M 1794 1469.808594 L 1793.980469 1469.820312 L 1793.988281 1469.820312 L 1794 1469.808594 "/>
<path fill-rule="evenodd" fill="rgb(0%, 0%, 0%)" fill-opacity="1" d="M 1847.53125 1579.101562 C 1844.390625 1579.601562 1841.390625 1580.910156 1838.648438 1582.871094 C 1832.761719 1587.070312 1829.089844 1595.550781 1829.128906 1601.210938 C 1829.179688 1607.269531 1831.769531 1611.960938 1835.320312 1615.148438 C 1838.839844 1618.308594 1843.949219 1621.011719 1851.601562 1619.511719 C 1852.25 1619.378906 1853.699219 1618.898438 1855.511719 1618.050781 C 1858.851562 1618 1862.78125 1616.941406 1867.101562 1613.648438 C 1873.300781 1608.941406 1874.308594 1604.148438 1874.75 1601.910156 C 1876.121094 1594.839844 1873.78125 1589.5 1869.371094 1585.460938 C 1867.398438 1582.519531 1864.390625 1579.980469 1859.679688 1578.539062 C 1856.128906 1577.460938 1851.648438 1577.46875 1847.53125 1579.101562 "/>
<path fill-rule="evenodd" fill="rgb(0%, 0%, 0%)" fill-opacity="1" d="M 1796.820312 1638.289062 C 1796.921875 1637.171875 1796.921875 1636.03125 1796.789062 1634.871094 C 1795.761719 1625.269531 1787.128906 1618.308594 1777.519531 1619.339844 C 1770.039062 1620.140625 1765.378906 1623.609375 1762.269531 1627.640625 C 1759.289062 1631.5 1757.609375 1636.398438 1757.761719 1641.941406 C 1757.988281 1650.871094 1764.941406 1661.929688 1769.859375 1665.410156 C 1777.328125 1670.699219 1784.558594 1669.660156 1789.710938 1666.910156 C 1793.359375 1664.960938 1800.941406 1659.898438 1799.550781 1646.058594 C 1799.261719 1643.191406 1798.300781 1640.550781 1796.820312 1638.289062 "/>
<path fill-rule="evenodd" fill="rgb(0%, 0%, 0%)" fill-opacity="1" d="M 1772.761719 1744.039062 C 1773.441406 1742.148438 1773.808594 1740.109375 1773.789062 1737.988281 C 1773.71875 1728.328125 1765.820312 1720.550781 1756.171875 1720.621094 C 1752.230469 1720.648438 1747.851562 1721.851562 1743.699219 1725.210938 C 1741.011719 1727.410156 1737.78125 1731.480469 1735.328125 1736.578125 C 1732.300781 1742.878906 1730.289062 1750.761719 1730.078125 1754.519531 C 1729.738281 1760.359375 1731.71875 1764.351562 1733.191406 1766.53125 C 1734.941406 1769.128906 1737.359375 1771.410156 1740.109375 1772.910156 C 1756.191406 1781.679688 1771.96875 1767.261719 1773.570312 1753.21875 C 1773.960938 1749.820312 1773.621094 1746.75 1772.761719 1744.039062 Z M 1759.628906 1764.5 L 1759.351562 1764.621094 L 1759.511719 1764.558594 L 1759.628906 1764.5 "/>
<path fill-rule="evenodd" fill="rgb(0%, 0%, 0%)" fill-opacity="1" d="M 1518.300781 1807.351562 C 1517.839844 1809.230469 1517.730469 1810.921875 1517.78125 1812.300781 C 1517.941406 1817.410156 1519.960938 1821.328125 1522.910156 1824.320312 C 1525.46875 1826.921875 1529.039062 1829.230469 1534.429688 1829.621094 C 1540.96875 1830.089844 1545.71875 1828.25 1549.289062 1825.800781 C 1553.878906 1822.660156 1557 1818 1558.328125 1812.460938 C 1559.359375 1811.800781 1560.339844 1811.089844 1561.210938 1810.371094 C 1564.359375 1807.769531 1566.539062 1804.800781 1567.808594 1802.089844 C 1569.960938 1797.511719 1570.230469 1792.921875 1569.070312 1788.578125 C 1568.039062 1784.75 1565.871094 1780.71875 1561.148438 1777.390625 C 1556.558594 1774.148438 1550.949219 1773.429688 1545.960938 1774.949219 C 1544.550781 1774.398438 1543.039062 1774.03125 1541.46875 1773.871094 C 1529.128906 1772.589844 1522.171875 1778.710938 1518.640625 1787.601562 C 1516.441406 1793.148438 1516.578125 1801.160156 1518.300781 1807.351562 Z M 1537.199219 1823.808594 C 1539.929688 1824.101562 1543.53125 1823.660156 1547.730469 1820.960938 C 1544.96875 1822.738281 1541.191406 1823.890625 1537.199219 1823.808594 Z M 1539.898438 1805.171875 L 1540.101562 1805.320312 L 1539.628906 1804.941406 Z M 1538.121094 1803.488281 C 1538.390625 1803.769531 1538.679688 1804.058594 1538.949219 1804.339844 L 1538.910156 1804.28125 C 1538.699219 1804.070312 1538.5 1803.859375 1538.289062 1803.660156 Z M 1537.378906 1802.609375 L 1537.628906 1802.910156 L 1537.320312 1802.519531 L 1537.378906 1802.609375 "/>
<path fill-rule="evenodd" fill="rgb(0%, 0%, 0%)" fill-opacity="1" d="M 1477.378906 1815 L 1478.03125 1814.519531 L 1477.390625 1814.988281 L 1477.359375 1815.019531 L 1477.328125 1815.039062 L 1477.390625 1814.988281 C 1487.828125 1805.699219 1482.328125 1791.03125 1482.21875 1790.871094 C 1482.121094 1790.710938 1479.839844 1787.78125 1476.109375 1785.511719 C 1474.261719 1782.628906 1471.53125 1780.269531 1468.128906 1778.859375 C 1461.191406 1775.980469 1454.160156 1776.851562 1447.960938 1780.941406 C 1443.050781 1784.179688 1438.679688 1790.25 1436.921875 1796.441406 C 1433.421875 1808.769531 1439.078125 1819.308594 1448.921875 1823.179688 C 1452.011719 1824.398438 1455.960938 1825.011719 1460.519531 1824.050781 C 1464.929688 1823.128906 1471.890625 1819.199219 1475.988281 1816.148438 C 1476.480469 1815.78125 1476.949219 1815.398438 1477.378906 1815 Z M 1477.011719 1815.261719 L 1476.730469 1815.441406 L 1476.75 1815.429688 L 1477.011719 1815.261719 "/>
<path fill-rule="evenodd" fill="rgb(0%, 0%, 0%)" fill-opacity="1" d="M 1367.769531 1818.289062 C 1368.261719 1818.410156 1368.761719 1818.511719 1369.289062 1818.609375 C 1378.089844 1820.210938 1386.550781 1814.921875 1389.128906 1806.589844 C 1394.171875 1799.171875 1390.871094 1791.699219 1390.769531 1791.410156 C 1390.679688 1791.160156 1390.28125 1790.359375 1389.578125 1789.289062 C 1391.121094 1782.199219 1388.101562 1774.609375 1381.558594 1770.628906 C 1368.859375 1762.921875 1354.601562 1768.441406 1347.039062 1780.691406 C 1340.230469 1791.71875 1342.171875 1805.480469 1348.539062 1811.988281 C 1352.148438 1815.691406 1358.210938 1819.628906 1367.769531 1818.289062 "/>
<path fill-rule="evenodd" fill="rgb(0%, 0%, 0%)" fill-opacity="1" d="M 1242.5 1620.761719 C 1243.351562 1623.328125 1244.640625 1625.558594 1246.121094 1627.390625 C 1250.53125 1632.851562 1258.191406 1637.179688 1269.121094 1634.199219 C 1278.441406 1631.660156 1283.941406 1622.03125 1281.398438 1612.710938 C 1280.671875 1610.011719 1279.339844 1607.628906 1277.589844 1605.679688 C 1277.171875 1602.949219 1276.191406 1600.578125 1274.898438 1598.570312 C 1274.578125 1589.910156 1267.871094 1582.621094 1259.011719 1581.808594 C 1243.890625 1580.429688 1234.308594 1594.210938 1234.261719 1604.398438 C 1234.21875 1610.890625 1237.03125 1616.230469 1241.238281 1619.769531 C 1241.640625 1620.109375 1242.058594 1620.441406 1242.5 1620.761719 Z M 1260.589844 1600.261719 C 1260.371094 1600.308594 1260.140625 1600.371094 1259.910156 1600.429688 L 1260.589844 1600.261719 "/>
<path fill-rule="evenodd" fill="rgb(0%, 0%, 0%)" fill-opacity="1" d="M 1104.46875 1492.101562 C 1102.191406 1497.160156 1103.140625 1501.289062 1103.78125 1503.660156 C 1105.421875 1509.671875 1109.390625 1514.96875 1117.898438 1516.429688 C 1118.761719 1516.570312 1119.941406 1516.699219 1121.371094 1516.660156 C 1125.261719 1517.398438 1129.28125 1516.851562 1133.308594 1514.730469 C 1136.519531 1513.039062 1139.128906 1510.550781 1140.890625 1507.601562 C 1144.871094 1503.25 1146.308594 1497.230469 1144.960938 1491.679688 C 1149.808594 1484.539062 1148.738281 1474.710938 1142.109375 1468.808594 C 1136.488281 1463.808594 1130.75 1462.929688 1125.570312 1463.691406 C 1121.25 1464.308594 1116.800781 1466.390625 1113.039062 1470.511719 C 1109.410156 1474.480469 1106.039062 1482.019531 1104.878906 1488.699219 C 1104.671875 1489.859375 1104.539062 1491 1104.46875 1492.101562 Z M 1120.390625 1496.179688 L 1120.949219 1496.570312 C 1121.199219 1496.71875 1121.449219 1496.871094 1121.699219 1497.019531 L 1122.230469 1497.308594 C 1121.621094 1497 1121 1496.621094 1120.390625 1496.179688 Z M 1119.871094 1495.808594 L 1120.128906 1495.988281 L 1119.679688 1495.648438 L 1119.871094 1495.808594 "/>
<path fill-rule="evenodd" fill="rgb(0%, 0%, 0%)" fill-opacity="1" d="M 1183.070312 1425.398438 C 1179.558594 1428.871094 1176.691406 1432.949219 1175.269531 1436.441406 C 1171.96875 1444.519531 1173.601562 1451.710938 1177.480469 1456.898438 C 1180.410156 1460.808594 1185.710938 1465.480469 1196.210938 1465.199219 C 1199.050781 1465.128906 1201.710938 1464.378906 1204.039062 1463.121094 C 1212.21875 1464.960938 1217.699219 1462.460938 1221.171875 1460.019531 C 1226.910156 1455.988281 1230.539062 1449.261719 1229.429688 1440.519531 C 1228.820312 1435.679688 1226.058594 1429.570312 1221.890625 1424.871094 C 1223.351562 1418.890625 1221.589844 1412.308594 1216.738281 1407.851562 C 1207.789062 1399.609375 1200.058594 1400.960938 1196.148438 1402.171875 C 1190.210938 1404.011719 1182.980469 1409.410156 1182.75 1421.210938 C 1182.730469 1422.390625 1182.851562 1423.820312 1183.070312 1425.398438 "/>
<path fill-rule="evenodd" fill="rgb(0%, 0%, 0%)" fill-opacity="1" d="M 1270.988281 1383.371094 C 1272.988281 1384.171875 1274.730469 1384.679688 1275.671875 1384.578125 C 1279.648438 1384.140625 1287.691406 1383.011719 1291.398438 1370.808594 C 1292.679688 1366.628906 1292.300781 1362.320312 1290.648438 1358.609375 C 1290.578125 1357.75 1290.449219 1356.871094 1290.25 1355.988281 C 1288.71875 1349.390625 1285.351562 1345.808594 1282.351562 1343.621094 C 1276.851562 1339.601562 1270.179688 1338.519531 1263.039062 1341.550781 C 1258.140625 1343.628906 1252.019531 1349.609375 1249.191406 1355.339844 C 1243.320312 1367.261719 1249.351562 1377.359375 1254.96875 1381.070312 C 1257.839844 1382.960938 1263.078125 1385.71875 1270.988281 1383.371094 Z M 1265.261719 1380.78125 C 1261.898438 1379.128906 1259.089844 1377.570312 1259.089844 1377.570312 C 1259.089844 1377.570312 1259.828125 1378.21875 1260.28125 1378.519531 C 1262.179688 1379.789062 1263.851562 1380.449219 1265.261719 1380.78125 Z M 1256.320312 1364.539062 L 1256.140625 1363.859375 C 1256.199219 1364.089844 1256.25 1364.320312 1256.320312 1364.539062 Z M 1258.359375 1351.121094 C 1253.339844 1354.429688 1252 1360.148438 1252 1360.148438 C 1252 1360.148438 1255.179688 1354.871094 1258.359375 1351.121094 Z M 1258.25 1359.628906 L 1258.230469 1359.699219 L 1258.351562 1359.410156 Z M 1258.621094 1358.730469 L 1258.601562 1358.769531 L 1258.648438 1358.660156 L 1258.621094 1358.730469 "/>
<path fill-rule="evenodd" fill="rgb(0%, 0%, 0%)" fill-opacity="1" d="M 1258.738281 1254.058594 C 1257.78125 1254.570312 1256.851562 1255.191406 1255.980469 1255.898438 C 1249.351562 1261.320312 1249.269531 1266.328125 1249.179688 1266.839844 C 1248.378906 1271.089844 1249.199219 1274.539062 1250.460938 1277.308594 C 1251.308594 1279.160156 1257.449219 1289.320312 1268.320312 1287.648438 C 1279.589844 1289.871094 1293.820312 1283.878906 1293.640625 1267.910156 C 1294.980469 1266.589844 1296.121094 1265.03125 1297 1263.25 C 1301.28125 1254.589844 1297.730469 1244.078125 1289.070312 1239.800781 C 1280.25 1235.441406 1274.210938 1236.96875 1270.46875 1238.519531 C 1265.328125 1240.660156 1261.511719 1244.519531 1259.488281 1250.308594 C 1259.179688 1251.179688 1258.929688 1252.558594 1258.738281 1254.058594 Z M 1278.75 1282.460938 L 1278.128906 1283 C 1278.351562 1282.820312 1278.558594 1282.640625 1278.75 1282.460938 Z M 1279.230469 1282.011719 L 1278.929688 1282.300781 L 1279.148438 1282.101562 L 1279.230469 1282.011719 "/>
<path fill-rule="evenodd" fill="rgb(0%, 0%, 0%)" fill-opacity="1" d="M 1364.660156 1241.410156 C 1354.359375 1248.679688 1351.351562 1262.539062 1356.339844 1275.640625 C 1361.820312 1290.011719 1376.210938 1299.449219 1390.261719 1295.898438 C 1408.261719 1291.339844 1415.808594 1274.398438 1412.921875 1258.570312 C 1410.019531 1242.621094 1397.078125 1229.378906 1377.890625 1232.011719 C 1371.988281 1232.808594 1367.179688 1236.480469 1364.660156 1241.410156 "/>
<path fill-rule="evenodd" fill="rgb(0%, 0%, 0%)" fill-opacity="1" d="M 1363.738281 1141.5 C 1366.109375 1147.589844 1371.808594 1152.109375 1378.75 1152.628906 C 1387.71875 1153.300781 1395.621094 1147.078125 1397.25 1138.449219 C 1399.730469 1134.78125 1400.449219 1131.449219 1400.410156 1128.738281 L 1400.511719 1128.230469 C 1401.960938 1118.679688 1395.390625 1109.738281 1385.851562 1108.289062 C 1379.441406 1107.308594 1373.140625 1108.550781 1368.671875 1111.53125 C 1364.179688 1114.519531 1360.191406 1119.171875 1359.421875 1127.488281 C 1358.789062 1134.320312 1361.238281 1138.589844 1363.738281 1141.5 Z M 1395.789062 1140.390625 L 1395.339844 1140.929688 C 1395.5 1140.75 1395.648438 1140.570312 1395.789062 1140.390625 "/>
<path fill-rule="evenodd" fill="rgb(0%, 0%, 0%)" fill-opacity="1" d="M 1500.738281 1020.851562 C 1497.929688 1016.96875 1493.539062 1014.25 1488.398438 1013.699219 C 1471.101562 1011.878906 1460.710938 1024.230469 1459.988281 1039.101562 C 1459.371094 1052.039062 1467.101562 1065.488281 1481.851562 1068.628906 C 1499.078125 1072.289062 1508.390625 1063.210938 1511.960938 1053.058594 C 1515.390625 1043.28125 1512.328125 1028.828125 1500.738281 1020.851562 "/>
<path fill-rule="evenodd" fill="rgb(0%, 0%, 0%)" fill-opacity="1" d="M 1588.410156 1213.640625 C 1593.300781 1206.328125 1592.011719 1196.351562 1585.128906 1190.550781 C 1581.539062 1187.519531 1577.089844 1186.191406 1572.738281 1186.46875 C 1566.890625 1182.648438 1561.039062 1183.101562 1555.980469 1185.128906 C 1551.519531 1186.921875 1545.941406 1191.570312 1543.929688 1199.601562 C 1541.398438 1209.679688 1545.378906 1225.359375 1559.949219 1230.210938 C 1568.101562 1232.921875 1575.351562 1230.921875 1581.339844 1224.871094 C 1583.890625 1222.300781 1587.46875 1215.480469 1588.410156 1213.640625 Z M 1553.140625 1215.519531 L 1553.160156 1215.53125 L 1553.011719 1215.410156 Z M 1552.578125 1215.058594 L 1551.960938 1214.5 C 1552.171875 1214.691406 1552.371094 1214.878906 1552.578125 1215.058594 "/>
<path fill-rule="evenodd" fill="rgb(0%, 0%, 0%)" fill-opacity="1" d="M 1540.691406 1519.738281 C 1540.769531 1514.191406 1543.46875 1507.890625 1546.828125 1501.539062 C 1552.570312 1490.679688 1560.398438 1479.859375 1564.71875 1471.980469 C 1594.828125 1417 1630.921875 1361.601562 1671.441406 1309.75 C 1712.039062 1257.808594 1757.058594 1209.441406 1804.941406 1168.628906 C 1806.269531 1167.53125 1806.449219 1165.558594 1805.339844 1164.230469 C 1804.238281 1162.910156 1802.269531 1162.730469 1800.949219 1163.828125 C 1751.75 1203.910156 1705.28125 1251.691406 1663.191406 1303.160156 C 1621.089844 1354.640625 1583.398438 1409.808594 1551.75 1464.691406 C 1546.449219 1473.871094 1536.308594 1486.988281 1530.199219 1499.601562 C 1526.878906 1506.460938 1524.761719 1513.238281 1524.539062 1519.320312 C 1524.429688 1523.78125 1527.949219 1527.488281 1532.410156 1527.609375 C 1536.871094 1527.71875 1540.578125 1524.191406 1540.691406 1519.738281 "/>
<path fill-rule="evenodd" fill="rgb(0%, 0%, 0%)" fill-opacity="1" d="M 1555 1505.148438 C 1585.160156 1457.410156 1622.148438 1416.988281 1662.160156 1379.660156 C 1723.039062 1322.839844 1790.828125 1273.160156 1852.359375 1216.140625 C 1853.640625 1214.980469 1853.738281 1213 1852.578125 1211.730469 C 1851.421875 1210.449219 1849.449219 1210.351562 1848.171875 1211.511719 C 1785.230469 1267.109375 1716.230469 1315.230469 1653.949219 1370.640625 C 1612.160156 1407.828125 1573.421875 1448.300781 1541.441406 1496.359375 C 1539.019531 1500.101562 1540.089844 1505.109375 1543.828125 1507.53125 C 1547.570312 1509.960938 1552.578125 1508.890625 1555 1505.148438 "/>
<path fill-rule="evenodd" fill="rgb(0%, 0%, 0%)" fill-opacity="1" d="M 1529.988281 1520.960938 C 1527.410156 1522.550781 1525.839844 1525.539062 1526.191406 1528.738281 C 1526.691406 1533.171875 1530.691406 1536.371094 1535.121094 1535.878906 C 1535.339844 1535.851562 1537.121094 1535.789062 1539.390625 1534.089844 C 1540.050781 1533.601562 1541.398438 1532.558594 1543.21875 1531.121094 C 1552.988281 1523.410156 1577.230469 1503.910156 1579.128906 1502.558594 C 1591.121094 1494.089844 1603.230469 1485.71875 1615.441406 1477.488281 C 1627.640625 1469.261719 1639.941406 1461.160156 1652.300781 1453.230469 C 1686.320312 1431.429688 1721.320312 1411.699219 1757.03125 1393.320312 C 1792.851562 1374.890625 1829.371094 1357.820312 1866.300781 1341.398438 C 1867.878906 1340.71875 1868.609375 1338.878906 1867.929688 1337.300781 C 1867.25 1335.710938 1865.421875 1334.980469 1863.828125 1335.660156 C 1826.351562 1351.179688 1789.269531 1367.359375 1752.839844 1384.921875 C 1716.351562 1402.511719 1680.539062 1421.5 1645.679688 1442.601562 C 1633.03125 1450.25 1620.441406 1458.078125 1607.941406 1466.050781 C 1595.429688 1474.019531 1583.03125 1482.128906 1570.730469 1490.339844 C 1568.761719 1491.660156 1543.589844 1510.828125 1533.449219 1518.410156 C 1531.980469 1519.511719 1530.378906 1520.679688 1529.988281 1520.960938 "/>
<path fill-rule="evenodd" fill="rgb(0%, 0%, 0%)" fill-opacity="1" d="M 1548.101562 1548.28125 C 1550.441406 1545.449219 1555.640625 1542.289062 1562.761719 1538.609375 C 1580.320312 1529.539062 1608.460938 1518.75 1639.230469 1508.199219 C 1697.46875 1488.230469 1764.96875 1469.179688 1788.699219 1464.398438 C 1790.390625 1464.089844 1791.519531 1462.460938 1791.210938 1460.769531 C 1790.898438 1459.070312 1789.28125 1457.941406 1787.578125 1458.25 C 1760.039062 1462.71875 1674.078125 1483.789062 1610.480469 1504.390625 C 1585.808594 1512.378906 1564.5 1520.351562 1551.050781 1527.238281 C 1543.769531 1530.96875 1538.621094 1534.640625 1535.851562 1537.738281 C 1532.941406 1541.121094 1533.328125 1546.230469 1536.710938 1549.128906 C 1540.089844 1552.039062 1545.191406 1551.660156 1548.101562 1548.28125 "/>
<path fill-rule="evenodd" fill="rgb(0%, 0%, 0%)" fill-opacity="1" d="M 1539.328125 1543.21875 C 1540.109375 1543.050781 1541.460938 1542.761719 1542.628906 1542.621094 C 1560.121094 1540.441406 1603.769531 1541.710938 1611.578125 1541.859375 C 1656.539062 1542.71875 1702.011719 1544.980469 1746.261719 1552.941406 C 1775.75 1558.238281 1804.679688 1566.058594 1832.53125 1577.679688 C 1834.109375 1578.371094 1835.960938 1577.648438 1836.648438 1576.070312 C 1837.339844 1574.488281 1836.609375 1572.648438 1835.03125 1571.960938 C 1807.058594 1559.199219 1777.878906 1550.289062 1748.03125 1543.910156 C 1703.511719 1534.398438 1657.550781 1530.601562 1612.058594 1528.238281 C 1604.011719 1527.828125 1559.03125 1525.140625 1540.921875 1526.808594 C 1535.839844 1527.269531 1532.28125 1528.441406 1530.660156 1529.429688 C 1528.761719 1530.601562 1527.730469 1532.101562 1527.089844 1533.441406 C 1525.238281 1537.5 1527.039062 1542.300781 1531.101562 1544.140625 C 1533.890625 1545.421875 1537.039062 1544.960938 1539.328125 1543.21875 "/>
<path fill-rule="evenodd" fill="rgb(0%, 0%, 0%)" fill-opacity="1" d="M 1543.570312 1533.058594 C 1543.058594 1531.761719 1542.199219 1530.578125 1541.019531 1529.660156 C 1537.511719 1526.921875 1532.429688 1527.539062 1529.679688 1531.058594 C 1528.28125 1532.941406 1526.769531 1536.25 1528.960938 1540.320312 C 1530.019531 1542.28125 1534.339844 1546.480469 1534.539062 1546.671875 C 1540.179688 1551.890625 1546.160156 1556.640625 1552.410156 1561.03125 C 1561.558594 1567.460938 1571.230469 1573.171875 1581.03125 1578.621094 C 1603.128906 1590.890625 1625.980469 1601.269531 1649.308594 1610.558594 C 1684.019531 1624.371094 1719.71875 1635.75 1755.320312 1647.378906 C 1756.949219 1647.949219 1758.730469 1647.089844 1759.300781 1645.460938 C 1759.871094 1643.828125 1759.011719 1642.050781 1757.378906 1641.480469 C 1722.449219 1628.5 1687.429688 1615.78125 1653.46875 1600.671875 C 1631.019531 1590.679688 1609.058594 1579.640625 1587.929688 1566.769531 C 1580.289062 1562.121094 1572.75 1557.308594 1565.53125 1552.070312 C 1558.480469 1546.960938 1551.761719 1541.429688 1545.578125 1535.21875 L 1543.570312 1533.058594 "/>
<path fill-rule="evenodd" fill="rgb(0%, 0%, 0%)" fill-opacity="1" d="M 1538.851562 1529.480469 C 1538.21875 1526.898438 1536.320312 1524.679688 1533.621094 1523.761719 C 1528.441406 1522.078125 1525.800781 1524.550781 1524.710938 1525.691406 C 1523.128906 1527.339844 1521.949219 1529.550781 1522.429688 1532.609375 C 1522.550781 1533.398438 1522.789062 1534.460938 1523.429688 1535.609375 C 1523.859375 1536.371094 1524.960938 1537.730469 1525.710938 1538.691406 C 1527.738281 1541.289062 1529.859375 1543.808594 1532.050781 1546.269531 C 1536.898438 1551.75 1542.03125 1556.988281 1546.890625 1562.449219 L 1594.261719 1615.191406 C 1621.929688 1645.730469 1650.121094 1677.5 1681.28125 1705.488281 C 1702.21875 1724.308594 1724.480469 1741.429688 1748.808594 1755.328125 C 1750.289062 1756.210938 1752.210938 1755.71875 1753.089844 1754.238281 C 1753.96875 1752.75 1753.480469 1750.828125 1751.988281 1749.960938 C 1728.570312 1735.570312 1707.269531 1718.089844 1687.308594 1698.980469 C 1657.308594 1670.261719 1630.359375 1637.878906 1603.890625 1606.730469 L 1558.289062 1552.621094 C 1553.609375 1547.019531 1548.660156 1541.640625 1544 1536.019531 C 1542.230469 1533.890625 1540.5 1531.710938 1538.851562 1529.480469 Z M 1530.46875 1539.46875 L 1530.449219 1539.46875 Z M 1530.371094 1539.460938 C 1529.710938 1539.410156 1529.050781 1539.269531 1528.398438 1539.050781 C 1529.128906 1539.308594 1529.789062 1539.429688 1530.371094 1539.460938 "/>
<path fill-rule="evenodd" fill="rgb(0%, 0%, 0%)" fill-opacity="1" d="M 1542.148438 1548.511719 C 1545.539062 1547.199219 1547.890625 1544.851562 1545.378906 1540.808594 C 1545.28125 1540.660156 1545.039062 1540.300781 1544.988281 1540.199219 C 1541.71875 1534.429688 1537.679688 1533.648438 1535.589844 1533.71875 C 1533.03125 1533.789062 1530.519531 1534.71875 1528.648438 1537.28125 C 1527.339844 1539.058594 1525.871094 1543.480469 1526.429688 1548.859375 L 1530.671875 1585.238281 C 1534.808594 1618.398438 1538.300781 1652.160156 1540.058594 1686.011719 C 1541.808594 1719.820312 1541.839844 1753.671875 1539.050781 1787.050781 C 1538.871094 1788.769531 1540.121094 1790.308594 1541.828125 1790.480469 C 1543.550781 1790.660156 1545.078125 1789.410156 1545.261719 1787.699219 C 1549.421875 1754.101562 1550.730469 1719.898438 1550.308594 1685.691406 C 1549.890625 1651.5 1547.710938 1617.328125 1544.859375 1583.75 L 1542.148438 1548.511719 "/>
<path fill-rule="evenodd" fill="rgb(0%, 0%, 0%)" fill-opacity="1" d="M 1529.679688 1514.140625 C 1528.410156 1516.550781 1526.640625 1520.070312 1526.21875 1521.699219 L 1521.441406 1541.550781 L 1505.679688 1608 C 1497.449219 1641.640625 1488.398438 1675.050781 1478.429688 1708.191406 C 1468.449219 1741.359375 1457.558594 1774.230469 1445.640625 1806.78125 C 1445.019531 1808.378906 1445.828125 1810.191406 1447.441406 1810.808594 C 1449.050781 1811.429688 1450.851562 1810.628906 1451.46875 1809.019531 C 1464.480469 1776.730469 1476.46875 1744.070312 1487.558594 1711.101562 C 1498.648438 1678.109375 1508.808594 1644.820312 1518.171875 1611.269531 L 1536.089844 1545.199219 L 1541.398438 1525.890625 C 1542.058594 1523.660156 1545.121094 1519.640625 1546 1517.5 C 1546.871094 1515.390625 1546.890625 1513.589844 1546.761719 1512.410156 C 1546.421875 1509.421875 1544.808594 1507.46875 1542.640625 1506.160156 C 1541.210938 1505.289062 1538.800781 1504.351562 1535.128906 1505.519531 C 1531.441406 1506.761719 1529.238281 1510.421875 1529.679688 1514.140625 Z M 1539.199219 1521.121094 C 1539.539062 1521.058594 1539.898438 1520.96875 1540.28125 1520.839844 C 1539.921875 1520.960938 1539.558594 1521.050781 1539.199219 1521.121094 "/>
<path fill-rule="evenodd" fill="rgb(0%, 0%, 0%)" fill-opacity="1" d="M 1511.230469 1511.011719 C 1506.160156 1518.230469 1501.808594 1526.140625 1497.890625 1534.398438 C 1489.390625 1552.300781 1482.851562 1571.878906 1474.128906 1589.101562 C 1455.300781 1626.269531 1436.351562 1663.289062 1417.261719 1700.238281 C 1398.171875 1737.210938 1378.941406 1774.089844 1359.578125 1810.980469 C 1358.761719 1812.488281 1359.320312 1814.390625 1360.828125 1815.210938 C 1362.351562 1816.039062 1364.238281 1815.46875 1365.070312 1813.960938 C 1385.519531 1777.648438 1405.828125 1741.328125 1426.03125 1704.929688 C 1446.21875 1668.53125 1466.269531 1632.070312 1486.199219 1595.441406 C 1495.46875 1578.398438 1502.640625 1558.941406 1511.699219 1541.210938 C 1515.460938 1533.871094 1519.558594 1526.859375 1524.320312 1520.480469 C 1526.929688 1516.871094 1526.121094 1511.808594 1522.511719 1509.199219 C 1518.898438 1506.578125 1513.839844 1507.390625 1511.230469 1511.011719 "/>
<path fill-rule="evenodd" fill="rgb(0%, 0%, 0%)" fill-opacity="1" d="M 1508.179688 1536.199219 C 1472.449219 1554.308594 1432.949219 1571.191406 1392.148438 1583.851562 C 1351.488281 1596.46875 1309.609375 1604.921875 1268.96875 1606.21875 C 1267.238281 1606.238281 1265.859375 1607.660156 1265.878906 1609.378906 C 1265.910156 1611.109375 1267.320312 1612.488281 1269.039062 1612.46875 C 1310.441406 1612.769531 1353.390625 1605.839844 1395.269531 1594.621094 C 1437.269531 1583.359375 1478.128906 1567.75 1515.199219 1550.75 C 1519.21875 1548.808594 1520.898438 1543.980469 1518.96875 1539.960938 C 1517.03125 1535.949219 1512.191406 1534.261719 1508.179688 1536.199219 "/>
<path fill-rule="evenodd" fill="rgb(0%, 0%, 0%)" fill-opacity="1" d="M 1516.589844 1530.289062 C 1478.25 1543.71875 1406.648438 1545.359375 1334.929688 1540.640625 C 1263.691406 1535.941406 1192.339844 1524.871094 1152.660156 1512.140625 C 1151.03125 1511.589844 1149.25 1512.46875 1148.710938 1514.109375 C 1148.160156 1515.738281 1149.039062 1517.511719 1150.671875 1518.058594 C 1197.320312 1534.410156 1288.078125 1549.679688 1371.289062 1554.648438 C 1431.910156 1558.269531 1488.53125 1556.261719 1521.730469 1545.609375 C 1525.960938 1544.199219 1528.238281 1539.609375 1526.820312 1535.390625 C 1525.398438 1531.160156 1520.820312 1528.878906 1516.589844 1530.289062 "/>
<path fill-rule="evenodd" fill="rgb(0%, 0%, 0%)" fill-opacity="1" d="M 1538.53125 1498.46875 C 1528.308594 1500.429688 1515.210938 1502.261719 1502.671875 1502.929688 C 1494.25 1503.371094 1486.089844 1503.320312 1479.289062 1502.371094 C 1434.179688 1496.050781 1388.851562 1488.320312 1343.988281 1478.46875 C 1299.128906 1468.621094 1254.761719 1456.679688 1211.570312 1441.941406 C 1209.949219 1441.359375 1208.160156 1442.210938 1207.578125 1443.828125 C 1207 1445.460938 1207.839844 1447.238281 1209.46875 1447.820312 C 1252.488281 1463.929688 1296.78125 1477.261719 1341.640625 1488.488281 C 1386.488281 1499.730469 1431.878906 1508.851562 1477.089844 1516.539062 C 1484.671875 1517.828125 1493.800781 1518.199219 1503.238281 1517.980469 C 1516.539062 1517.671875 1530.460938 1516.140625 1541.339844 1514.378906 C 1545.738281 1513.601562 1548.671875 1509.410156 1547.898438 1505.019531 C 1547.121094 1500.628906 1542.929688 1497.691406 1538.53125 1498.46875 "/>
<path fill-rule="evenodd" fill="rgb(0%, 0%, 0%)" fill-opacity="1" d="M 1536.660156 1500.75 C 1539.988281 1502.480469 1544.191406 1501.691406 1546.648438 1498.660156 C 1549.050781 1495.609375 1549 1493 1548.691406 1491.351562 C 1548.210938 1488.851562 1546.921875 1486.648438 1544.199219 1485.300781 C 1543.140625 1484.769531 1541.429688 1484.171875 1539.148438 1484.261719 C 1536.738281 1484.351562 1531.699219 1485.878906 1529.28125 1485.738281 C 1525.578125 1485.53125 1521.878906 1485.269531 1518.199219 1484.921875 C 1514.558594 1484.570312 1510.929688 1484.128906 1507.320312 1483.558594 C 1498.039062 1482.101562 1488.800781 1480.328125 1479.589844 1478.351562 C 1465.679688 1475.359375 1451.851562 1471.890625 1438.148438 1468.308594 C 1403.261719 1459.171875 1371.460938 1445.449219 1342.460938 1427.328125 C 1313.179688 1409.039062 1286.75 1386.300781 1262.859375 1359.339844 C 1261.738281 1358.03125 1259.769531 1357.878906 1258.460938 1359.011719 C 1257.148438 1360.128906 1257 1362.101562 1258.121094 1363.410156 C 1281.671875 1391.699219 1307.960938 1415.730469 1337.28125 1435.339844 C 1366.621094 1454.960938 1399 1470.121094 1434.710938 1480.660156 C 1448.488281 1484.730469 1462.390625 1488.671875 1476.390625 1492.140625 C 1485.800781 1494.46875 1495.261719 1496.578125 1504.738281 1498.378906 C 1508.640625 1499.121094 1512.550781 1499.71875 1516.480469 1500.21875 C 1520.359375 1500.710938 1524.25 1501.109375 1528.140625 1501.449219 C 1529.871094 1501.601562 1533.890625 1501.128906 1536.660156 1500.75 Z M 1533.539062 1489.28125 C 1533.699219 1489.011719 1533.890625 1488.738281 1534.101562 1488.488281 C 1533.878906 1488.75 1533.691406 1489.019531 1533.539062 1489.28125 "/>
<path fill-rule="evenodd" fill="rgb(0%, 0%, 0%)" fill-opacity="1" d="M 1513.191406 1477.890625 C 1508.558594 1477.140625 1502.03125 1473.269531 1494.789062 1468.449219 C 1478.21875 1457.421875 1458.980469 1441.070312 1449.789062 1434.691406 C 1415.089844 1410.578125 1382.820312 1384.46875 1353.339844 1355.609375 C 1323.769531 1326.648438 1297.011719 1294.960938 1273.378906 1259.769531 C 1272.441406 1258.328125 1270.5 1257.921875 1269.058594 1258.859375 C 1267.609375 1259.789062 1267.199219 1261.730469 1268.140625 1263.179688 C 1291.011719 1299.53125 1317.171875 1332.429688 1346.238281 1362.640625 C 1375.300781 1392.851562 1407.269531 1420.328125 1441.78125 1445.859375 C 1450.828125 1452.558594 1469.710938 1469.578125 1486.039062 1481.171875 C 1495.449219 1487.851562 1504.28125 1492.628906 1510.378906 1493.800781 C 1514.769531 1494.570312 1518.960938 1491.640625 1519.738281 1487.25 C 1520.519531 1482.859375 1517.578125 1478.660156 1513.191406 1477.890625 "/>
<path fill-rule="evenodd" fill="rgb(0%, 0%, 0%)" fill-opacity="1" d="M 1522.710938 1481.839844 C 1516.820312 1478.378906 1511.210938 1472.800781 1505.890625 1466.558594 C 1496.488281 1455.53125 1488.03125 1442.5 1480.980469 1433.539062 C 1460.75 1407.820312 1441.710938 1381.859375 1425.019531 1354.539062 C 1408.328125 1327.230469 1393.980469 1298.609375 1383.140625 1267.589844 C 1382.601562 1265.949219 1380.839844 1265.058594 1379.199219 1265.601562 C 1377.558594 1266.140625 1376.671875 1267.898438 1377.210938 1269.539062 C 1387.050781 1301.5 1400.550781 1331.140625 1416.488281 1359.539062 C 1432.371094 1387.851562 1450.671875 1414.878906 1470.199219 1441.699219 C 1478.160156 1452.640625 1487.890625 1469.210938 1498.941406 1481.769531 C 1504.550781 1488.148438 1510.558594 1493.488281 1516.761719 1496.960938 C 1518.640625 1498.011719 1521.269531 1498.328125 1523.28125 1497.859375 C 1525.308594 1497.390625 1527.078125 1496.210938 1528.441406 1494.109375 C 1530.800781 1490.328125 1529.640625 1485.339844 1525.859375 1482.980469 C 1524.871094 1482.359375 1523.789062 1481.988281 1522.710938 1481.839844 Z M 1516.449219 1483.601562 C 1515.800781 1484.101562 1515.21875 1484.738281 1514.730469 1485.558594 C 1515.210938 1484.800781 1515.789062 1484.140625 1516.449219 1483.601562 "/>
<path fill-rule="evenodd" fill="rgb(0%, 0%, 0%)" fill-opacity="1" d="M 1540.769531 1490.429688 C 1538.738281 1489.679688 1536.609375 1487.320312 1534.101562 1484.289062 C 1528.96875 1478.121094 1523.351562 1469.191406 1517.820312 1459.429688 C 1504.878906 1436.609375 1492.46875 1409.398438 1487.738281 1400.238281 C 1469.660156 1365.261719 1453.679688 1329.398438 1439.089844 1292.96875 C 1417.128906 1238.121094 1398.308594 1182.019531 1380.25 1125.738281 C 1379.75 1124.089844 1378 1123.160156 1376.351562 1123.671875 C 1374.699219 1124.171875 1373.78125 1125.921875 1374.28125 1127.570312 C 1391.019531 1184.480469 1408.539062 1241.21875 1429.230469 1296.78125 C 1443.070312 1333.921875 1458.328125 1370.511719 1475.71875 1406.269531 C 1480.941406 1417 1495.769531 1451.890625 1510.148438 1476.648438 C 1514.980469 1484.960938 1519.800781 1492.148438 1524.199219 1497.140625 C 1528 1501.460938 1531.769531 1504.238281 1534.988281 1505.519531 C 1539.148438 1507.121094 1543.828125 1505.03125 1545.429688 1500.871094 C 1547.019531 1496.710938 1544.941406 1492.03125 1540.769531 1490.429688 "/>
<path fill-rule="evenodd" fill="rgb(0%, 0%, 0%)" fill-opacity="1" d="M 1541.320312 1484.261719 L 1541.289062 1484.199219 L 1536.648438 1471.96875 C 1534.671875 1466.410156 1532.851562 1460.800781 1531.140625 1455.160156 C 1529.410156 1449.46875 1527.808594 1443.761719 1526.28125 1438.019531 C 1522.109375 1422.410156 1518.300781 1406.738281 1514.761719 1391 C 1511.21875 1375.238281 1507.941406 1359.410156 1504.828125 1343.53125 C 1498.289062 1310.011719 1492.421875 1276 1488.390625 1241.808594 C 1484.378906 1207.679688 1482.199219 1173.378906 1483.019531 1139.191406 C 1483.25 1129.460938 1483.941406 1119.800781 1484.851562 1110.148438 C 1486.988281 1087.359375 1490.308594 1064.71875 1491.648438 1041.828125 C 1491.769531 1040.109375 1490.46875 1038.621094 1488.75 1038.5 C 1487.03125 1038.378906 1485.539062 1039.679688 1485.421875 1041.398438 C 1483.589844 1064.179688 1479.78125 1086.671875 1477.160156 1109.351562 C 1476.019531 1119.148438 1475.109375 1128.988281 1474.648438 1138.898438 C 1473.070312 1173.5 1474.519531 1208.289062 1477.828125 1242.929688 C 1481.140625 1277.5 1486.308594 1311.910156 1492.179688 1345.859375 C 1494.960938 1361.929688 1497.921875 1377.949219 1501.140625 1393.910156 C 1504.378906 1409.910156 1507.890625 1425.851562 1511.761719 1441.730469 C 1513.199219 1447.660156 1514.730469 1453.570312 1516.371094 1459.460938 C 1518.03125 1465.371094 1519.800781 1471.25 1521.738281 1477.089844 L 1526.5 1490.46875 C 1527.050781 1491.800781 1528.441406 1494.570312 1529.339844 1495.648438 C 1530.789062 1497.378906 1532.449219 1498.089844 1533.628906 1498.441406 C 1535.898438 1499.089844 1537.980469 1498.71875 1539.878906 1497.671875 C 1541.25 1496.921875 1543.011719 1495.539062 1543.859375 1492.480469 C 1544.691406 1489.378906 1543.601562 1486.21875 1541.320312 1484.261719 Z M 1529.691406 1485.410156 C 1529.101562 1486.121094 1528.578125 1487.039062 1528.261719 1488.300781 C 1528.550781 1487.21875 1529.039062 1486.238281 1529.691406 1485.410156 "/>
<path fill-rule="evenodd" fill="rgb(0%, 0%, 0%)" fill-opacity="1" d="M 1538.160156 1503.230469 C 1537.679688 1506.191406 1538.859375 1509.300781 1541.46875 1511.140625 C 1545.109375 1513.71875 1550.160156 1512.851562 1552.730469 1509.210938 C 1553.039062 1508.761719 1554.25 1507.089844 1554.289062 1503.929688 C 1554.300781 1502.539062 1554.191406 1499.660156 1553.949219 1495.730469 C 1552.710938 1475.421875 1548.441406 1425.140625 1548.359375 1419.960938 C 1547.859375 1384.03125 1549.371094 1348.410156 1552.53125 1312.921875 C 1555.699219 1277.328125 1560.511719 1241.898438 1566.589844 1206.441406 C 1566.910156 1204.75 1565.789062 1203.109375 1564.101562 1202.789062 C 1562.398438 1202.46875 1560.769531 1203.589844 1560.449219 1205.28125 C 1553.160156 1240.738281 1547.148438 1276.210938 1542.78125 1311.890625 C 1538.398438 1347.660156 1535.691406 1383.601562 1535 1419.929688 C 1534.898438 1425.148438 1537.519531 1475.941406 1538.089844 1496.441406 C 1538.171875 1499.289062 1538.171875 1502.351562 1538.160156 1503.230469 "/>
</svg>
